<?xml version="1.0" encoding="UTF-8"?>
<svg id="Layer_1" data-name="Layer 1" xmlns="http://www.w3.org/2000/svg" version="1.1" viewBox="0 0 229.9 300.5">
  <defs>
    <style>
      .cls-1 {
        fill: #6b6666;
        stroke-width: 0px;
      }
    </style>
  </defs>
  <g>
    <path class="cls-1" d="M11.9,201.8h6v34.4h10.8v5.8H11.9v-40.1h0Z"/>
    <path class="cls-1" d="M35.7,239.9c-1.8-1.8-2.7-4.2-2.7-7v-21.9c0-2.9.9-5.2,2.7-7s4.2-2.7,7-2.7,5.2.9,7,2.7,2.7,4.2,2.7,7v21.9c0,2.9-.9,5.2-2.7,7s-4.2,2.7-7,2.7-5.2-.9-7-2.7ZM45.4,235.7c.6-.7,1-1.6,1-2.9v-21.9c0-1.3-.4-2.3-1-2.9-.6-.7-1.5-1-2.7-1s-2.1.4-2.7,1c-.6.7-1,1.6-1,2.9v21.9c0,1.3.4,2.3,1,2.9.6.7,1.5,1,2.7,1s2.1-.4,2.7-1Z"/>
    <path class="cls-1" d="M61,239.9c-1.7-1.7-2.6-4-2.6-6.8v-31.3h6v31.3c0,1.2.3,2.1.9,2.7s1.4,1,2.4,1,1.8-.4,2.4-1,.9-1.5.9-2.7v-31.3h6v31.3c0,2.8-.9,5.1-2.6,6.8s-4,2.6-6.8,2.6-5.1-.9-6.9-2.6h.2Z"/>
    <path class="cls-1" d="M83.6,201.8h6v40.1h-6v-40.1h0Z"/>
    <path class="cls-1" d="M99.7,241.3c-1.5-.8-2.6-2-3.4-3.5s-1.3-3.2-1.3-5.1v-1.4l5.9-.6v1.5c0,1.4.4,2.6,1,3.4.7.8,1.6,1.3,2.9,1.3s2.2-.4,2.8-1c.7-.7,1.1-1.6,1.1-2.8s-.4-2.5-1.1-3.7-2.3-2.8-4.4-5c-3-2.8-5.1-5.1-6.1-7-1.1-1.9-1.6-3.9-1.6-6.1s.8-5.4,2.4-7.2c1.6-1.8,3.9-2.7,6.8-2.7s5.1.9,6.8,2.7,2.4,4.2,2.4,7.2v1l-5.9.6v-1.2c0-1.5-.3-2.7-.9-3.5-.5-.8-1.4-1.2-2.4-1.2s-1.9.4-2.4,1-.9,1.6-.9,2.9.4,2.4,1.2,3.6c.7,1.2,2.3,2.8,4.4,5.1,3,3,5.1,5.4,6.1,7.2,1.1,1.8,1.6,3.8,1.6,6s-.5,3.6-1.3,5.1-2,2.6-3.4,3.5c-1.5.8-3.2,1.3-5.1,1.3s-3.6-.5-5.1-1.3h0Z"/>
    <path class="cls-1" d="M139.1,201.8l-6.7,40.1h-8.1l-6.7-40.1h6.2l4.6,31.6,4.6-31.6h6,0Z"/>
    <path class="cls-1" d="M143.8,201.8h6v40.1h-6v-40.1h0Z"/>
    <path class="cls-1" d="M156.5,201.8h6v34.4h10.8v5.8h-17v-40.1h0Z"/>
    <path class="cls-1" d="M178.2,201.8h6v34.4h10.8v5.8h-17v-40.1h0Z"/>
    <path class="cls-1" d="M199.8,201.8h17.2v5.8h-11.2v11.2h8.9v5.8h-8.9v11.7h11.2v5.8h-17.2v-40.1h0Z"/>
    <path class="cls-1" d="M32.7,249.7v31.4h-4.8v-21.5l-4.4,21.5h-3.3l-4.4-21.5v21.5h-4.6v-31.4h6.7l4.2,20,4-20h6.8Z"/>
    <path class="cls-1" d="M47.3,274.1h-5.1l-1,6.9h-4.8l5.2-31.4h6.4l5.2,31.4h-4.9l-1-6.9h0ZM46.7,269.6l-1.9-13.2-1.9,13.2h3.9,0Z"/>
    <path class="cls-1" d="M63.4,268.1l-1.8,3.4v9.5h-4.8v-31.4h4.8v12.7l6.3-12.7h5.1l-6.7,13.3,7.1,18h-5.1l-5-12.9h0Z"/>
    <path class="cls-1" d="M77,249.7h13.4v4.5h-8.8v8.8h6.9v4.5h-6.9v9.2h8.8v4.5h-13.4v-31.4h0Z"/>
    <path class="cls-1" d="M97,280.5c-1.2-.6-2.1-1.5-2.7-2.7s-1-2.5-1-4v-1.1l4.6-.5v1.2c0,1.2.3,2.1.8,2.7s1.3,1,2.3,1,1.6-.3,2.3-.8c.5-.5.8-1.3.8-2.2s-.3-2-.9-2.9-1.7-2.3-3.4-3.9c-2.3-2.2-3.9-4.1-4.8-5.5-.8-1.4-1.3-3.1-1.3-4.8s.6-4.2,1.9-5.6,3.1-2.1,5.3-2.1,4,.7,5.3,2.1c1.3,1.4,1.9,3.2,1.9,5.7v.8l-4.6.5v-.9c0-1.2-.2-2.1-.6-2.7s-1.1-.9-1.9-.9-1.4.3-1.9.7c-.5.5-.6,1.3-.6,2.3s.3,1.9.9,2.9c.6.9,1.7,2.3,3.4,3.9,2.3,2.3,3.9,4.2,4.8,5.6s1.3,3,1.3,4.7-.4,2.8-1,4-1.5,2.1-2.7,2.7-2.5,1-4,1-2.8-.4-4-1l-.2-.2Z"/>
    <path class="cls-1" d="M131.8,259.5v-2.6c0-1-.3-1.7-.7-2.3-.5-.5-1.2-.8-2.1-.8s-1.6.3-2.1.8c-.5.5-.7,1.3-.7,2.3v17.1c0,1,.3,1.7.7,2.3.5.5,1.2.8,2.1.8s1.6-.3,2.1-.8c.5-.5.7-1.3.7-2.3v-5.6h-2.9v-4.5h7.6v10c0,2.3-.7,4.1-2.1,5.5-1.4,1.4-3.2,2.1-5.5,2.1s-4.2-.7-5.5-2.1c-1.4-1.4-2.1-3.2-2.1-5.5v-17.1c0-2.3.7-4.1,2.1-5.5,1.4-1.4,3.2-2.1,5.5-2.1s4.2.7,5.5,2.1c1.4,1.4,2.1,3.2,2.1,5.5v2.6h-4.8,0Z"/>
    <path class="cls-1" d="M150.5,274.1h-5.1l-1,6.9h-4.8l5.2-31.4h6.4l5.2,31.4h-4.9l-1-6.9h0ZM149.8,269.6l-1.9-13.2-1.9,13.2h3.9,0Z"/>
    <path class="cls-1" d="M181.7,249.7v31.4h-4.8v-21.5l-4.4,21.5h-3.3l-4.4-21.5v21.5h-4.7v-31.4h6.7l4.2,20,4-20h6.9Z"/>
    <path class="cls-1" d="M186.8,249.7h13.4v4.5h-8.8v8.8h6.9v4.5h-6.9v9.2h8.8v4.5h-13.4v-31.4h0Z"/>
    <path class="cls-1" d="M206.9,280.5c-1.2-.6-2.1-1.5-2.7-2.7s-1-2.5-1-4v-1.1l4.6-.5v1.2c0,1.2.3,2.1.8,2.7.5.6,1.3,1,2.3,1s1.6-.3,2.3-.8c.5-.5.8-1.3.8-2.2s-.3-2-.9-2.9-1.7-2.3-3.4-3.9c-2.3-2.2-3.9-4.1-4.8-5.5-.8-1.4-1.3-3.1-1.3-4.8s.6-4.2,1.9-5.6c1.3-1.4,3.1-2.1,5.3-2.1s4,.7,5.3,2.1c1.3,1.4,1.9,3.2,1.9,5.7v.8l-4.6.5v-.9c0-1.2-.2-2.1-.6-2.7s-1.1-.9-1.9-.9-1.4.3-1.9.7c-.5.5-.6,1.3-.6,2.3s.3,1.9.9,2.9c.6.9,1.7,2.3,3.4,3.9,2.3,2.3,3.9,4.2,4.8,5.6s1.3,3,1.3,4.7-.4,2.8-1,4-1.5,2.1-2.7,2.7-2.5,1-4,1-2.8-.4-4-1l-.2-.2Z"/>
  </g>
  <path class="cls-1" d="M114.7,189.9c-49.5,0-89.8-40.2-89.8-89.8S65.2,10.4,114.7,10.4s89.8,40.2,89.8,89.8-40.2,89.8-89.8,89.8ZM114.7,20.8c-43.8,0-79.4,35.6-79.4,79.4s35.6,79.4,79.4,79.4,79.4-35.6,79.4-79.4S158.5,20.8,114.7,20.8Z"/>
  <path class="cls-1" d="M69.3,77.6c-11.9,0-21.5,9.7-21.5,21.5s9.7,21.5,21.5,21.5,21.5-9.7,21.5-21.5-9.7-21.5-21.5-21.5ZM73.9,110.3h-9.4v-22.4h3.3v19.1h6v3.2h0Z"/>
  <path class="cls-1" d="M115.6,36.5c-11.9,0-21.5,9.7-21.5,21.5s9.7,21.5,21.5,21.5,21.5-9.7,21.5-21.5-9.7-21.5-21.5-21.5ZM123.4,69.2h-3.3v-15.3l-3.2,15.3h-2.3l-3.2-15.3v15.3h-3.3v-22.4h4.8l3,14.3,2.8-14.3h4.9v22.4h0Z"/>
  <path class="cls-1" d="M160.6,77.6c-11.9,0-21.5,9.7-21.5,21.5s9.7,21.5,21.5,21.5,21.5-9.7,21.5-21.5-9.7-21.5-21.5-21.5ZM166.2,94.9h-3.3v-1.9c0-.7-.2-1.3-.5-1.6-.4-.4-.9-.5-1.5-.5s-1.2.2-1.5.5-.5.9-.5,1.6v12.2c0,.7.2,1.3.5,1.6.4.4.9.5,1.5.5s1.2-.2,1.5-.5.5-.9.5-1.6v-4h-2.1v-3.2h5.4v7.1c0,1.6-.5,2.9-1.5,3.9-1,1-2.3,1.4-4,1.4s-2.9-.5-4-1.4-1.5-2.3-1.5-3.9v-12.2c0-1.6.5-2.9,1.5-3.9s2.3-1.4,4-1.4,2.9.5,4,1.4,1.5,2.3,1.5,3.9v1.9Z"/>
</svg>