<?xml version="1.0" encoding="UTF-8"?>
<svg id="Layer_1" data-name="Layer 1" xmlns="http://www.w3.org/2000/svg" version="1.1" viewBox="0 0 229.9 300.5">
  <defs>
    <style>
      .cls-1 {
        fill: #6b6666;
      }

      .cls-1, .cls-2, .cls-3, .cls-4, .cls-5 {
        stroke-width: 0px;
      }

      .cls-2 {
        fill: #a39f9f;
      }

      .cls-3 {
        fill: #ea3657;
      }

      .cls-4 {
        fill: #edde44;
      }

      .cls-5 {
        fill: #6acad0;
      }
    </style>
  </defs>
  <path class="cls-2" d="M145.5,52.2c-.3-15.3-12.9-28.4-28.1-29.3-7.4-.4-14.1,2.2-18.9,6.7h0s-.4.4-.4.4c0,0,0,0,0,0l-55,50.6h0c-5.2,4.8-8.3,11.7-8.2,19.6.3,15.3,12.9,28.4,28.1,29.3,7.4.4,14.1-2.2,18.9-6.7h0s.4-.4.4-.4c0,0,0,0,0,0l55-50.6h0c5.2-4.8,8.3-11.7,8.2-19.6ZM65.4,115.6c-10.1,0-18.3-8.2-18.3-18.3s8.2-18.3,18.3-18.3,18.3,8.2,18.3,18.3-8.2,18.3-18.3,18.3ZM115.8,71.1c-10.1,0-18.3-8.2-18.3-18.3s8.2-18.3,18.3-18.3,18.3,8.2,18.3,18.3-8.2,18.3-18.3,18.3Z"/>
  <g>
    <path class="cls-1" d="M.8,212.2h6.7v38.1h12v6.4H.8v-44.5Z"/>
    <path class="cls-1" d="M27.2,254.4c-2-2-3-4.6-3-7.8v-24.3c0-3.2,1-5.8,3-7.8,2-2,4.6-3,7.8-3s5.8,1,7.8,3c2,2,3,4.6,3,7.8v24.3c0,3.2-1,5.8-3,7.8-2,2-4.6,3-7.8,3s-5.8-1-7.8-3ZM38,249.8c.7-.8,1.1-1.8,1.1-3.2v-24.3c0-1.4-.4-2.5-1.1-3.2-.7-.8-1.7-1.1-3-1.1s-2.3.4-3,1.1c-.7.8-1.1,1.8-1.1,3.2v24.3c0,1.4.4,2.5,1.1,3.2.7.8,1.7,1.1,3,1.1s2.3-.4,3-1.1Z"/>
    <path class="cls-1" d="M55.3,254.4c-1.9-1.9-2.9-4.4-2.9-7.5v-34.7h6.7v34.7c0,1.3.3,2.3,1,3s1.6,1.1,2.7,1.1,2-.4,2.7-1.1,1-1.7,1-3v-34.7h6.6v34.7c0,3.1-1,5.6-2.9,7.5s-4.4,2.9-7.5,2.9-5.6-1-7.6-2.9Z"/>
    <path class="cls-1" d="M80.3,212.2h6.7v44.5h-6.7v-44.5Z"/>
    <path class="cls-1" d="M98.1,255.9c-1.7-.9-2.9-2.2-3.8-3.9-.9-1.7-1.4-3.5-1.4-5.7v-1.6l6.5-.7v1.7c0,1.6.4,2.9,1.1,3.8.8.9,1.8,1.4,3.2,1.4s2.4-.4,3.1-1.1c.8-.8,1.2-1.8,1.2-3.1s-.4-2.8-1.2-4.1-2.5-3.1-4.9-5.5c-3.3-3.1-5.6-5.7-6.8-7.8-1.2-2.1-1.8-4.3-1.8-6.8s.9-6,2.7-8c1.8-2,4.3-3,7.5-3s5.7,1,7.5,3c1.8,2,2.7,4.7,2.7,8v1.1l-6.5.7v-1.3c0-1.7-.3-3-1-3.9-.6-.9-1.5-1.3-2.7-1.3s-2.1.4-2.7,1.1-1,1.8-1,3.2.4,2.7,1.3,4c.8,1.3,2.5,3.1,4.9,5.6,3.3,3.3,5.6,6,6.8,8,1.2,2,1.8,4.2,1.8,6.6s-.5,4-1.4,5.7c-.9,1.7-2.2,2.9-3.8,3.9-1.7.9-3.5,1.4-5.7,1.4s-4-.5-5.7-1.4Z"/>
    <path class="cls-1" d="M141.8,212.2l-7.4,44.5h-9l-7.4-44.5h6.9l5.1,35,5.1-35h6.7Z"/>
    <path class="cls-1" d="M147,212.2h6.7v44.5h-6.7v-44.5Z"/>
    <path class="cls-1" d="M161.1,212.2h6.7v38.1h12v6.4h-18.8v-44.5Z"/>
    <path class="cls-1" d="M185.1,212.2h6.7v38.1h12v6.4h-18.8v-44.5Z"/>
    <path class="cls-1" d="M209.1,212.2h19.1v6.4h-12.4v12.4h9.9v6.4h-9.9v13h12.4v6.4h-19.1v-44.5Z"/>
    <path class="cls-1" d="M23.9,265.3v34.8h-5.3v-23.8l-4.9,23.8h-3.7l-4.9-23.8v23.8H0v-34.8h7.4l4.6,22.2,4.4-22.2h7.5Z"/>
    <path class="cls-1" d="M40.1,292.3h-5.7l-1.1,7.7h-5.3l5.8-34.8h7.1l5.8,34.8h-5.4l-1.1-7.7ZM39.4,287.3l-2.1-14.6-2.1,14.6h4.3Z"/>
    <path class="cls-1" d="M57.9,285.7l-2,3.8v10.5h-5.3v-34.8h5.3v14.1l7-14.1h5.7l-7.4,14.7,7.9,20h-5.7l-5.5-14.3Z"/>
    <path class="cls-1" d="M73,265.3h14.9v5h-9.7v9.7h7.7v5h-7.7v10.2h9.7v5h-14.9v-34.8Z"/>
    <path class="cls-1" d="M95.2,299.4c-1.3-.7-2.3-1.7-3-3s-1.1-2.8-1.1-4.4v-1.2l5.1-.5v1.3c0,1.3.3,2.3.9,3,.6.7,1.4,1.1,2.5,1.1s1.8-.3,2.5-.9c.6-.6.9-1.4.9-2.4s-.3-2.2-1-3.2-1.9-2.5-3.8-4.3c-2.6-2.4-4.3-4.5-5.3-6.1-.9-1.6-1.4-3.4-1.4-5.3s.7-4.7,2.1-6.2c1.4-1.5,3.4-2.3,5.9-2.3s4.4.8,5.9,2.3c1.4,1.6,2.1,3.6,2.1,6.3v.9l-5.1.5v-1c0-1.3-.2-2.3-.7-3-.5-.7-1.2-1-2.1-1s-1.6.3-2.1.8c-.5.6-.7,1.4-.7,2.5s.3,2.1,1,3.2c.7,1,1.9,2.5,3.8,4.3,2.6,2.6,4.3,4.7,5.3,6.2s1.4,3.3,1.4,5.2-.4,3.1-1.1,4.4-1.7,2.3-3,3c-1.3.7-2.8,1.1-4.4,1.1s-3.1-.4-4.4-1.1Z"/>
    <path class="cls-1" d="M133.7,276.1v-2.9c0-1.1-.3-1.9-.8-2.5-.6-.6-1.3-.9-2.3-.9s-1.8.3-2.3.9c-.6.6-.8,1.4-.8,2.5v19c0,1.1.3,1.9.8,2.5.6.6,1.3.9,2.3.9s1.8-.3,2.3-.9c.6-.6.8-1.4.8-2.5v-6.2h-3.2v-5h8.4v11.1c0,2.5-.8,4.5-2.3,6.1-1.6,1.5-3.6,2.3-6.1,2.3s-4.6-.8-6.1-2.3c-1.6-1.5-2.3-3.6-2.3-6.1v-19c0-2.5.8-4.5,2.3-6.1,1.6-1.5,3.6-2.3,6.1-2.3s4.6.8,6.1,2.3c1.6,1.5,2.3,3.6,2.3,6.1v2.9h-5.3Z"/>
    <path class="cls-1" d="M154.4,292.3h-5.7l-1.1,7.7h-5.3l5.8-34.8h7.1l5.8,34.8h-5.4l-1.1-7.7ZM153.7,287.3l-2.1-14.6-2.1,14.6h4.3Z"/>
    <path class="cls-1" d="M189,265.3v34.8h-5.3v-23.8l-4.9,23.8h-3.7l-4.9-23.8v23.8h-5.2v-34.8h7.4l4.6,22.2,4.4-22.2h7.5Z"/>
    <path class="cls-1" d="M194.7,265.3h14.9v5h-9.7v9.7h7.7v5h-7.7v10.2h9.7v5h-14.9v-34.8Z"/>
    <path class="cls-1" d="M217,299.4c-1.3-.7-2.3-1.7-3-3s-1.1-2.8-1.1-4.4v-1.2l5.1-.5v1.3c0,1.3.3,2.3.9,3,.6.7,1.4,1.1,2.5,1.1s1.8-.3,2.5-.9c.6-.6.9-1.4.9-2.4s-.3-2.2-1-3.2-1.9-2.5-3.8-4.3c-2.6-2.4-4.3-4.5-5.3-6.1-.9-1.6-1.4-3.4-1.4-5.3s.7-4.7,2.1-6.2c1.4-1.5,3.4-2.3,5.9-2.3s4.4.8,5.9,2.3c1.4,1.6,2.1,3.6,2.1,6.3v.9l-5.1.5v-1c0-1.3-.2-2.3-.7-3-.5-.7-1.2-1-2.1-1s-1.6.3-2.1.8c-.5.6-.7,1.4-.7,2.5s.3,2.1,1,3.2c.7,1,1.9,2.5,3.8,4.3,2.6,2.6,4.3,4.7,5.3,6.2s1.4,3.3,1.4,5.2-.4,3.1-1.1,4.4-1.7,2.3-3,3c-1.3.7-2.8,1.1-4.4,1.1s-3.1-.4-4.4-1.1Z"/>
  </g>
  <path class="cls-1" d="M114.8,199c-54.9,0-99.5-44.6-99.5-99.5S59.9,0,114.8,0s99.5,44.6,99.5,99.5-44.6,99.5-99.5,99.5ZM114.8,11.5c-48.5,0-88,39.5-88,88s39.5,88,88,88,88-39.5,88-88S163.3,11.5,114.8,11.5Z"/>
  <path class="cls-4" d="M64.4,74.5c-13.2,0-23.8,10.7-23.8,23.8s10.7,23.8,23.8,23.8,23.8-10.7,23.8-23.8-10.7-23.8-23.8-23.8ZM69.6,110.8h-10.4v-24.8h3.7v21.2h6.7v3.5Z"/>
  <path class="cls-5" d="M115.8,29c-13.2,0-23.8,10.7-23.8,23.8s10.7,23.8,23.8,23.8,23.8-10.7,23.8-23.8-10.7-23.8-23.8-23.8ZM124.4,65.2h-3.7v-17l-3.5,17h-2.6l-3.5-17v17h-3.7v-24.8h5.3l3.3,15.8,3.1-15.8h5.4v24.8Z"/>
  <path class="cls-2" d="M196.2,97.9c-.3-15.3-12.9-28.4-28.1-29.3-7.4-.4-14.1,2.2-18.9,6.7h0s-.4.4-.4.4c0,0,0,0,0,0l-55,50.6h0c-5.2,4.8-8.3,11.7-8.2,19.6.3,15.3,12.9,28.4,28.1,29.3,7.4.4,14.1-2.2,18.9-6.7h0s.4-.4.4-.4c0,0,0,0,0,0l55-50.6h0c5.2-4.8,8.3-11.7,8.2-19.6ZM114.8,169.8c-13.2,0-23.8-10.7-23.8-23.8s10.7-23.8,23.8-23.8,23.8,10.7,23.8,23.8-10.7,23.8-23.8,23.8ZM166.5,116.7c-10.1,0-18.3-8.2-18.3-18.3s8.2-18.3,18.3-18.3,18.3,8.2,18.3,18.3-8.2,18.3-18.3,18.3Z"/>
  <path class="cls-3" d="M165.7,74.5c-13.2,0-23.8,10.7-23.8,23.8s10.7,23.8,23.8,23.8,23.8-10.7,23.8-23.8-10.7-23.8-23.8-23.8ZM171.8,93.7h-3.7v-2.1c0-.8-.2-1.4-.6-1.8-.4-.4-1-.6-1.7-.6s-1.3.2-1.7.6c-.4.4-.6,1-.6,1.8v13.5c0,.8.2,1.4.6,1.8.4.4,1,.6,1.7.6s1.3-.2,1.7-.6.6-1,.6-1.8v-4.4h-2.3v-3.5h6v7.9c0,1.8-.6,3.2-1.7,4.3-1.1,1.1-2.6,1.6-4.4,1.6s-3.2-.5-4.4-1.6-1.7-2.5-1.7-4.3v-13.5c0-1.8.6-3.2,1.7-4.3s2.6-1.6,4.4-1.6,3.2.5,4.4,1.6,1.7,2.5,1.7,4.3v2.1Z"/>
  <text/>
</svg>