<?xml version="1.0" encoding="UTF-8"?>
<svg id="Layer_1" data-name="Layer 1" xmlns="http://www.w3.org/2000/svg" version="1.1" viewBox="0 0 671.3 199">
  <defs>
    <style>
      .cls-1 {
        fill: #fff;
        stroke-width: 0px;
      }
    </style>
  </defs>
  <g>
    <path class="cls-1" d="M218.9,24.5h11.8v67h21.1v11.3h-32.9V24.5h0Z"/>
    <path class="cls-1" d="M265.3,98.8c-3.5-3.5-5.3-8.1-5.3-13.7v-42.8c0-5.6,1.8-10.2,5.3-13.7s8.1-5.3,13.7-5.3,10.2,1.8,13.7,5.3,5.3,8.1,5.3,13.7v42.8c0,5.6-1.8,10.2-5.3,13.7s-8.1,5.3-13.7,5.3-10.2-1.8-13.7-5.3ZM284.3,90.7c1.2-1.4,1.9-3.2,1.9-5.6v-42.8c0-2.5-.7-4.4-1.9-5.6-1.2-1.4-3-1.9-5.3-1.9s-4,.7-5.3,1.9c-1.2,1.4-1.9,3.2-1.9,5.6v42.8c0,2.5.7,4.4,1.9,5.6,1.2,1.4,3,1.9,5.3,1.9s4-.7,5.3-1.9Z"/>
    <path class="cls-1" d="M314.8,98.8c-3.3-3.3-5.1-7.7-5.1-13.2V24.5h11.8v61.1c0,2.3.5,4,1.8,5.3s2.8,1.9,4.8,1.9,3.5-.7,4.8-1.9,1.8-3,1.8-5.3V24.5h11.6v61.1c0,5.5-1.8,9.9-5.1,13.2s-7.7,5.1-13.2,5.1-9.9-1.8-13.4-5.1h.4-.2Z"/>
    <path class="cls-1" d="M358.8,24.5h11.8v78.3h-11.8V24.5h0Z"/>
    <path class="cls-1" d="M390.1,101.4c-3-1.6-5.1-3.9-6.7-6.9s-2.5-6.2-2.5-10v-2.8l11.4-1.2v3c0,2.8.7,5.1,1.9,6.7,1.4,1.6,3.2,2.5,5.6,2.5s4.2-.7,5.5-1.9c1.4-1.4,2.1-3.2,2.1-5.5s-.7-4.9-2.1-7.2-4.4-5.5-8.6-9.7c-5.8-5.5-9.9-10-12-13.7s-3.2-7.6-3.2-12,1.6-10.6,4.8-14.1c3.2-3.5,7.6-5.3,13.2-5.3s10,1.8,13.2,5.3,4.8,8.3,4.8,14.1v1.9l-11.4,1.2v-2.3c0-3-.5-5.3-1.8-6.9-1.1-1.6-2.6-2.3-4.8-2.3s-3.7.7-4.8,1.9-1.8,3.2-1.8,5.6.7,4.8,2.3,7c1.4,2.3,4.4,5.5,8.6,9.9,5.8,5.8,9.9,10.6,12,14.1s3.2,7.4,3.2,11.6-.9,7-2.5,10-3.9,5.1-6.7,6.9c-3,1.6-6.2,2.5-10,2.5s-7-.9-10-2.5h.3Z"/>
    <path class="cls-1" d="M467,24.5l-13,78.3h-15.8l-13-78.3h12.1l9,61.6,9-61.6h11.8-.1Z"/>
    <path class="cls-1" d="M476.1,24.5h11.8v78.3h-11.8V24.5h0Z"/>
    <path class="cls-1" d="M500.9,24.5h11.8v67h21.1v11.3h-33.1V24.5h.2Z"/>
    <path class="cls-1" d="M543.2,24.5h11.8v67h21.1v11.3h-33.1V24.5h.2Z"/>
    <path class="cls-1" d="M585.4,24.5h33.6v11.3h-21.8v21.8h17.4v11.3h-17.4v22.9h21.8v11.3h-33.6V24.5Z"/>
    <path class="cls-1" d="M259.5,118v61.2h-9.3v-41.9l-8.6,41.9h-6.5l-8.6-41.9v41.9h-9v-61.2h13l8.1,39.1,7.7-39.1h13.2Z"/>
    <path class="cls-1" d="M288,165.5h-10l-1.9,13.5h-9.3l10.2-61.2h12.5l10.2,61.2h-9.5l-1.9-13.5h-.3ZM286.8,156.7l-3.7-25.7-3.7,25.7h7.6-.2,0Z"/>
    <path class="cls-1" d="M319.4,153.9l-3.5,6.7v18.5h-9.3v-61.2h9.3v24.8l12.3-24.8h10l-13,25.9,13.9,35.2h-10l-9.7-25.2v.2h0Z"/>
    <path class="cls-1" d="M345.9,118h26.2v8.8h-17.1v17.1h13.5v8.8h-13.5v17.9h17.1v8.8h-26.2v-61.4Z"/>
    <path class="cls-1" d="M385,178c-2.3-1.2-4-3-5.3-5.3s-1.9-4.9-1.9-7.7v-2.1l9-.9v2.3c0,2.3.5,4,1.6,5.3s2.5,1.9,4.4,1.9,3.2-.5,4.4-1.6c1.1-1.1,1.6-2.5,1.6-4.2s-.5-3.9-1.8-5.6-3.3-4.4-6.7-7.6c-4.6-4.2-7.6-7.9-9.3-10.7-1.6-2.8-2.5-6-2.5-9.3s1.2-8.3,3.7-10.9,6-4,10.4-4,7.7,1.4,10.4,4c2.5,2.8,3.7,6.3,3.7,11.1v1.6l-9,.9v-1.8c0-2.3-.4-4-1.2-5.3s-2.1-1.8-3.7-1.8-2.8.5-3.7,1.4c-.9,1.1-1.2,2.5-1.2,4.4s.5,3.7,1.8,5.6c1.2,1.8,3.3,4.4,6.7,7.6,4.6,4.6,7.6,8.3,9.3,10.9s2.5,5.8,2.5,9.1-.7,5.5-1.9,7.7-3,4-5.3,5.3-4.9,1.9-7.7,1.9-5.5-.7-7.7-1.9l-.4-.4h-.2Z"/>
    <path class="cls-1" d="M452.7,137v-5.1c0-1.9-.5-3.3-1.4-4.4-1.1-1.1-2.3-1.6-4-1.6s-3.2.5-4,1.6c-1.1,1.1-1.4,2.5-1.4,4.4v33.4c0,1.9.5,3.3,1.4,4.4,1.1,1.1,2.3,1.6,4,1.6s3.2-.5,4-1.6c1.1-1.1,1.4-2.5,1.4-4.4v-10.9h-5.6v-8.8h14.8v19.5c0,4.4-1.4,7.9-4,10.7-2.8,2.6-6.3,4-10.7,4s-8.1-1.4-10.7-4c-2.8-2.6-4-6.3-4-10.7v-33.4c0-4.4,1.4-7.9,4-10.7,2.8-2.6,6.3-4,10.7-4s8.1,1.4,10.7,4c2.8,2.6,4,6.3,4,10.7v5.1h-9.3l.2.2h-.1Z"/>
    <path class="cls-1" d="M489.1,165.5h-10l-1.9,13.5h-9.3l10.2-61.2h12.5l10.2,61.2h-9.5l-1.9-13.5h-.3ZM487.9,156.7l-3.7-25.7-3.7,25.7h7.6-.2,0Z"/>
    <path class="cls-1" d="M550,118v61.2h-9.3v-41.9l-8.6,41.9h-6.5l-8.6-41.9v41.9h-9.1v-61.2h13l8.1,39.1,7.7-39.1h13.4-.1Z"/>
    <path class="cls-1" d="M560.1,118h26.2v8.8h-17.1v17.1h13.5v8.8h-13.5v17.9h17.1v8.8h-26.2v-61.4Z"/>
    <path class="cls-1" d="M599.3,178c-2.3-1.2-4-3-5.3-5.3-1.2-2.3-1.9-4.9-1.9-7.7v-2.1l9-.9v2.3c0,2.3.5,4,1.6,5.3,1.1,1.2,2.5,1.9,4.4,1.9s3.2-.5,4.4-1.6c1.1-1.1,1.6-2.5,1.6-4.2s-.5-3.9-1.8-5.6-3.3-4.4-6.7-7.6c-4.6-4.2-7.6-7.9-9.3-10.7-1.6-2.8-2.5-6-2.5-9.3s1.2-8.3,3.7-10.9,6-4,10.4-4,7.7,1.4,10.4,4c2.5,2.8,3.7,6.3,3.7,11.1v1.6l-9,.9v-1.8c0-2.3-.4-4-1.2-5.3s-2.1-1.8-3.7-1.8-2.8.5-3.7,1.4c-.9,1.1-1.2,2.5-1.2,4.4s.5,3.7,1.8,5.6c1.2,1.8,3.3,4.4,6.7,7.6,4.6,4.6,7.6,8.3,9.3,10.9s2.5,5.8,2.5,9.1-.7,5.5-1.9,7.7c-1.2,2.3-3,4-5.3,5.3s-4.9,1.9-7.7,1.9-5.5-.7-7.7-1.9l-.4-.4h-.2Z"/>
  </g>
  <path class="cls-1" d="M116.2,189.9c-48.6,0-88.1-39.5-88.1-88.1S67.6,13.7,116.2,13.7s88.1,39.5,88.1,88.1-39.5,88.1-88.1,88.1ZM116.2,23.9c-42.9,0-77.9,35-77.9,77.9s35,77.9,77.9,77.9,77.9-35,77.9-77.9S159.1,23.9,116.2,23.9Z"/>
  <path class="cls-1" d="M71.6,79.7c-11.7,0-21.1,9.5-21.1,21.1s9.5,21.1,21.1,21.1,21.1-9.5,21.1-21.1-9.5-21.1-21.1-21.1ZM76.2,111.8h-9.2v-22h3.3v18.8h5.9v3.1h0Z"/>
  <path class="cls-1" d="M117.1,39.4c-11.7,0-21.1,9.5-21.1,21.1s9.5,21.1,21.1,21.1,21.1-9.5,21.1-21.1-9.5-21.1-21.1-21.1ZM124.7,71.4h-3.3v-15l-3.1,15h-2.3l-3.1-15v15h-3.3v-22h4.7l2.9,14,2.7-14h4.8v22h0Z"/>
  <path class="cls-1" d="M161.3,79.7c-11.7,0-21.1,9.5-21.1,21.1s9.5,21.1,21.1,21.1,21.1-9.5,21.1-21.1-9.5-21.1-21.1-21.1ZM166.7,96.6h-3.3v-1.9c0-.7-.2-1.2-.5-1.6-.4-.4-.9-.5-1.5-.5s-1.2.2-1.5.5-.5.9-.5,1.6v11.9c0,.7.2,1.2.5,1.6.4.4.9.5,1.5.5s1.2-.2,1.5-.5.5-.9.5-1.6v-3.9h-2v-3.1h5.3v7c0,1.6-.5,2.8-1.5,3.8s-2.3,1.4-3.9,1.4-2.8-.4-3.9-1.4-1.5-2.2-1.5-3.8v-11.9c0-1.6.5-2.8,1.5-3.8s2.3-1.4,3.9-1.4,2.8.4,3.9,1.4,1.5,2.2,1.5,3.8v1.9Z"/>
</svg>