<?xml version="1.0" encoding="utf-8"?>
<!-- Generator: Adobe Illustrator 16.0.0, SVG Export Plug-In . SVG Version: 6.00 Build 0)  -->
<!DOCTYPE svg PUBLIC "-//W3C//DTD SVG 1.1//EN" "http://www.w3.org/Graphics/SVG/1.1/DTD/svg11.dtd">
<svg version="1.1" id="Layer_1" xmlns="http://www.w3.org/2000/svg" xmlns:xlink="http://www.w3.org/1999/xlink" x="0px" y="0px"
	 width="1138px" height="640px" viewBox="0 0 1138 640" enable-background="new 0 0 1138 640" xml:space="preserve">
<g>
	<path fill="#E2E0E1" d="M299.322,583.185c-69.287,0-134.427-26.982-183.42-75.976c-48.994-48.994-75.976-114.134-75.976-183.42
		c0-69.287,26.982-134.427,75.976-183.42s114.133-75.975,183.42-75.975c69.288,0,134.428,26.981,183.421,75.975
		s75.976,114.133,75.976,183.42c0,69.286-26.982,134.426-75.976,183.42C433.749,556.202,368.609,583.185,299.322,583.185z
		 M299.322,88.394c-62.876,0-121.989,24.485-166.45,68.945c-44.461,44.46-68.946,103.573-68.946,166.45
		c0,62.876,24.485,121.988,68.946,166.449c44.46,44.461,103.574,68.946,166.45,68.946c62.876,0,121.99-24.485,166.451-68.946
		s68.946-103.573,68.946-166.449c0-62.876-24.485-121.989-68.946-166.45C421.312,112.879,362.199,88.394,299.322,88.394z"/>
</g>
<g>
	<path fill="#EDDE44" d="M228.635,317.994c0,34.753-28.17,62.92-62.914,62.92c-34.751,0-62.919-28.167-62.919-62.92
		c0-34.746,28.168-62.919,62.919-62.919C200.465,255.075,228.635,283.248,228.635,317.994z"/>
</g>
<g>
	<path fill="#FFFFFF" d="M182.03,350.992h-28.564v-69.497h10.483v59.07h18.081V350.992z"/>
</g>
<g>
	<path fill="#6ACAD0" d="M362.239,200.99c0,34.746-28.173,62.918-62.916,62.918c-34.749,0-62.917-28.173-62.917-62.918
		c0-34.747,28.168-62.917,62.917-62.917C334.066,138.073,362.239,166.243,362.239,200.99z"/>
</g>
<g>
	<path fill="#FFFFFF" d="M285.479,236.32h-10.483v-69.552h15.043l9.77,49.962l9.378-49.962h14.452v69.552h-10.482v-43.706
		l-9.096,43.706h-8.43l-10.151-43.595V236.32z"/>
</g>
<g>
	<path fill="#EA3657" d="M495.06,317.994c0,34.753-28.17,62.92-62.917,62.92c-34.75,0-62.918-28.167-62.918-62.92
		c0-34.746,28.168-62.919,62.918-62.919C466.89,255.075,495.06,283.248,495.06,317.994z"/>
</g>
<g>
	<path fill="#FFFFFF" d="M434.203,353.187c-4.623,0-8.551-1.627-11.786-4.881c-3.236-3.254-4.854-7.155-4.854-11.703v-37.938
		c0-4.622,1.627-8.55,4.881-11.786c3.253-3.235,7.173-4.853,11.758-4.853c4.622,0,8.542,1.627,11.759,4.881
		c3.217,3.254,4.825,7.174,4.825,11.758v7.932h-10.871v-8.153c0-1.664-0.592-3.087-1.775-4.271
		c-1.184-1.183-2.606-1.775-4.271-1.775s-3.078,0.592-4.243,1.775c-1.165,1.184-1.747,2.607-1.747,4.271v38.048
		c0,1.664,0.583,3.079,1.747,4.243c1.165,1.165,2.579,1.747,4.243,1.747s3.087-0.58,4.271-1.741
		c1.183-1.162,1.775-2.572,1.775-4.232v-13.66h-5.824v-10.539h16.695v24.293c0,4.622-1.627,8.541-4.881,11.759
		C442.652,351.578,438.751,353.187,434.203,353.187z"/>
</g>
<g>
	<path fill="#5E5A5C" d="M633.474,236.32h-40.78V137.1h14.966v84.333h25.814V236.32z"/>
	<path fill="#5E5A5C" d="M667.443,135.833c6.598,0,12.207,2.324,16.826,6.969c4.619,4.646,6.929,10.242,6.929,16.787v54.164
		c0,6.6-2.323,12.208-6.968,16.827c-4.646,4.62-10.242,6.929-16.787,6.929c-6.601,0-12.195-2.323-16.788-6.969
		c-4.593-4.645-6.889-10.241-6.889-16.787v-54.164c0-6.598,2.322-12.207,6.968-16.827
		C655.379,138.143,660.949,135.833,667.443,135.833z M675.599,159.272c0-2.376-0.831-4.395-2.494-6.058
		c-1.663-1.663-3.682-2.494-6.058-2.494s-4.408,0.832-6.098,2.494c-1.689,1.663-2.533,3.682-2.533,6.058v54.321
		c0,2.376,0.844,4.395,2.533,6.058c1.689,1.663,3.722,2.494,6.098,2.494s4.395-0.832,6.058-2.494
		c1.663-1.663,2.494-3.682,2.494-6.058V159.272z"/>
	<path fill="#5E5A5C" d="M727.94,237.429c-6.601,0-12.195-2.296-16.788-6.889s-6.889-10.162-6.889-16.708V137.1h14.649v76.573
		c0,2.376,0.844,4.395,2.533,6.058c1.689,1.663,3.722,2.494,6.098,2.494s4.395-0.832,6.058-2.494
		c1.663-1.663,2.494-3.682,2.494-6.058V137.1h15.6v76.731c0,6.651-2.323,12.248-6.968,16.788
		C740.081,235.16,734.485,237.429,727.94,237.429z"/>
	<path fill="#5E5A5C" d="M779.963,236.32h-14.966V137.1h14.966V236.32z"/>
	<path fill="#5E5A5C" d="M841.966,211.614c0.104,6.917-1.69,12.828-5.385,17.738c-2.429,3.326-5.86,5.675-10.294,7.047
		c-2.376,0.739-5.147,1.109-8.315,1.109c-5.859,0-10.717-1.452-14.569-4.355c-3.221-2.375-5.769-5.608-7.642-9.7
		c-1.875-4.09-2.97-8.776-3.286-14.056l14.253-1.029c0.634,5.784,2.164,9.976,4.593,12.576c1.794,1.963,3.854,2.893,6.177,2.786
		c3.272-0.105,5.886-1.717,7.84-4.835c1.002-1.532,1.504-3.724,1.504-6.578c0-4.121-1.874-8.217-5.622-12.285
		c-2.957-2.8-7.392-7-13.303-12.602c-4.963-4.808-8.474-9.115-10.532-12.919c-2.217-4.28-3.326-8.93-3.326-13.949
		c0-9.035,3.035-15.878,9.106-20.528c3.748-2.8,8.394-4.201,13.938-4.201c5.331,0,9.897,1.188,13.699,3.563
		c2.955,1.849,5.345,4.435,7.166,7.76s2.916,7.154,3.286,11.482l-14.333,2.613c-0.423-4.064-1.583-7.232-3.484-9.502
		c-1.373-1.636-3.353-2.455-5.938-2.455c-2.745,0-4.83,1.215-6.256,3.643c-1.162,1.954-1.742,4.382-1.742,7.285
		c0,4.541,1.953,9.16,5.86,13.857c1.477,1.795,3.694,3.907,6.651,6.335c3.484,2.904,5.78,4.937,6.889,6.097
		c3.695,3.696,6.546,7.338,8.553,10.928c0.95,1.69,1.715,3.247,2.296,4.672C841.174,205.649,841.912,208.817,841.966,211.614z"/>
	<path fill="#5E5A5C" d="M867.543,236.32l-17.736-99.22h15.687l12.454,77.341l12.544-77.341h15.694l-18.054,99.22H867.543z"/>
	<path fill="#5E5A5C" d="M933.662,236.32h-14.966V137.1h14.966V236.32z"/>
	<path fill="#5E5A5C" d="M987.824,236.32h-40.78V137.1h14.966v84.333h25.814V236.32z"/>
	<path fill="#5E5A5C" d="M1038.898,236.32h-40.78V137.1h14.966v84.333h25.814V236.32z"/>
	<path fill="#5E5A5C" d="M1049.191,236.32v-99.299h42.602v15.045h-27.636v27.082h20.192v15.045h-20.192v27.082h27.636v15.045
		H1049.191z"/>
	<path fill="#5E5A5C" d="M607.659,370.113h-14.966v-99.299h21.477l13.947,71.332l13.389-71.332h20.634v99.299h-14.967v-62.398
		l-12.985,62.398h-12.036l-14.492-62.24V370.113z"/>
	<path fill="#5E5A5C" d="M693.87,347.308l-3.637,22.806H674.65l16.867-99.22h20.588l16.627,99.22h-15.735l-3.501-22.806H693.87z
		 M701.731,293.62l-5.543,39.118h11.086L701.731,293.62z"/>
	<path fill="#5E5A5C" d="M756.288,338.637v31.477h-14.966v-99.299h14.966v35.396l18.292-35.396h15.956l-20.485,40.502l24.022,58.797
		H776.48l-15.714-40.315L756.288,338.637z"/>
	<path fill="#5E5A5C" d="M806.255,370.113v-99.299h42.602v15.045h-27.636v27.082h20.192v15.045h-20.192v27.082h27.636v15.045
		H806.255z"/>
	<path fill="#5E5A5C" d="M908.642,345.407c0.104,6.916-1.69,12.828-5.385,17.737c-2.429,3.326-5.86,5.676-10.294,7.048
		c-2.376,0.738-5.147,1.108-8.315,1.108c-5.859,0-10.717-1.451-14.569-4.354c-3.221-2.376-5.769-5.609-7.642-9.701
		c-1.875-4.09-2.97-8.775-3.286-14.055l14.253-1.03c0.634,5.785,2.164,9.977,4.593,12.576c1.794,1.964,3.854,2.893,6.177,2.786
		c3.272-0.104,5.886-1.717,7.84-4.835c1.002-1.532,1.504-3.725,1.504-6.577c0-4.122-1.874-8.217-5.622-12.285
		c-2.957-2.8-7.392-7.001-13.303-12.602c-4.963-4.809-8.474-9.115-10.532-12.92c-2.217-4.28-3.326-8.93-3.326-13.949
		c0-9.035,3.035-15.878,9.106-20.528c3.748-2.8,8.394-4.201,13.938-4.201c5.331,0,9.897,1.188,13.699,3.563
		c2.955,1.849,5.345,4.435,7.166,7.76s2.916,7.154,3.286,11.482l-14.333,2.613c-0.423-4.064-1.583-7.232-3.484-9.502
		c-1.373-1.636-3.353-2.455-5.938-2.455c-2.745,0-4.83,1.215-6.256,3.643c-1.162,1.954-1.742,4.382-1.742,7.285
		c0,4.541,1.953,9.16,5.86,13.857c1.477,1.795,3.694,3.907,6.651,6.335c3.484,2.904,5.78,4.937,6.889,6.097
		c3.695,3.696,6.546,7.338,8.553,10.927c0.95,1.69,1.715,3.247,2.296,4.673C907.85,339.442,908.588,342.609,908.642,345.407z"/>
	<path fill="#5E5A5C" d="M616.449,505.173c-6.6,0-12.209-2.322-16.827-6.968c-4.62-4.645-6.929-10.215-6.929-16.708v-54.164
		c0-6.598,2.322-12.207,6.968-16.827c4.645-4.618,10.241-6.929,16.788-6.929c6.598,0,12.194,2.324,16.787,6.969
		c4.593,4.646,6.889,10.242,6.889,16.787v11.324h-15.52v-11.641c0-2.376-0.846-4.407-2.534-6.098
		c-1.69-1.688-3.722-2.533-6.098-2.533s-4.395,0.845-6.058,2.533c-1.663,1.69-2.494,3.722-2.494,6.098v54.321
		c0,2.376,0.831,4.396,2.494,6.058c1.663,1.663,3.682,2.495,6.058,2.495s4.407-0.829,6.098-2.487
		c1.688-1.658,2.534-3.672,2.534-6.042v-19.503h-8.315v-15.045h23.835v34.684c0,6.6-2.323,12.194-6.968,16.787
		C628.511,502.877,622.942,505.173,616.449,505.173z"/>
	<path fill="#5E5A5C" d="M669.639,481.101l-3.637,22.806h-15.583l16.867-99.22h20.588l16.627,99.22h-15.735l-3.501-22.806H669.639z
		 M677.5,427.412l-5.543,39.118h11.086L677.5,427.412z"/>
	<path fill="#5E5A5C" d="M732.058,503.906h-14.966v-99.3h21.477l13.947,71.332l13.389-71.332h20.634v99.3h-14.967v-62.398
		l-12.985,62.398H746.55l-14.492-62.24V503.906z"/>
	<path fill="#5E5A5C" d="M799.919,503.906v-99.3h42.602v15.046h-27.636v27.082h20.192v15.045h-20.192v27.082h27.636v15.045H799.919z
		"/>
	<path fill="#5E5A5C" d="M902.306,479.2c0.104,6.916-1.69,12.828-5.385,17.737c-2.429,3.326-5.86,5.676-10.294,7.048
		c-2.376,0.738-5.147,1.108-8.315,1.108c-5.859,0-10.717-1.451-14.569-4.354c-3.221-2.376-5.769-5.609-7.642-9.701
		c-1.875-4.09-2.97-8.775-3.286-14.055l14.253-1.03c0.634,5.785,2.164,9.977,4.593,12.576c1.794,1.964,3.854,2.893,6.177,2.786
		c3.272-0.104,5.886-1.717,7.84-4.835c1.002-1.532,1.504-3.725,1.504-6.577c0-4.122-1.874-8.217-5.622-12.285
		c-2.957-2.8-7.392-7.001-13.303-12.602c-4.963-4.809-8.474-9.115-10.532-12.92c-2.217-4.28-3.326-8.93-3.326-13.949
		c0-9.034,3.035-15.878,9.106-20.527c3.748-2.801,8.394-4.201,13.938-4.201c5.331,0,9.897,1.188,13.699,3.563
		c2.955,1.849,5.345,4.435,7.166,7.761c1.821,3.325,2.916,7.153,3.286,11.481l-14.333,2.613c-0.423-4.064-1.583-7.232-3.484-9.502
		c-1.373-1.636-3.353-2.455-5.938-2.455c-2.745,0-4.83,1.215-6.256,3.643c-1.162,1.953-1.742,4.382-1.742,7.285
		c0,4.541,1.953,9.159,5.86,13.857c1.477,1.795,3.694,3.907,6.651,6.335c3.484,2.903,5.78,4.937,6.889,6.098
		c3.695,3.695,6.546,7.338,8.553,10.927c0.95,1.69,1.715,3.247,2.296,4.673C901.514,473.235,902.252,476.402,902.306,479.2z"/>
	<path fill="#5E5A5C" d="M912.599,460.116v-55.51h14.966v55.51l-1.108,19.163h-12.749L912.599,460.116z M912.599,503.906v-15.045
		h14.966v15.045H912.599z"/>
</g>
<g>
	<circle fill="#E2E2E2" cx="299.323" cy="443.83" r="62.917"/>
</g>
<g>
</g>
</svg>
