<?xml version="1.0" encoding="UTF-8"?>
<svg id="Layer_1" data-name="Layer 1" xmlns="http://www.w3.org/2000/svg" version="1.1" viewBox="0 0 230 87">
  <defs>
    <style>
      .cls-1 {
        fill: #fff;
        stroke-width: 0px;
      }
    </style>
  </defs>
  <g>
    <path class="cls-1" d="M95.5,34.1v4.3h-10.1v-2.9h1.4v-8.7h-1.4v-2.9h5.8v2.9h-1.4v8.7h2.9v-1.4h2.9Z"/>
    <path class="cls-1" d="M104.1,23.9c.6,0,1.2.1,1.7.3.5.2,1,.5,1.4.9s.7.9.9,1.4.3,1.1.3,1.7v5.8c0,.6-.1,1.2-.3,1.7-.2.5-.5,1-.9,1.4s-.9.7-1.4.9c-.5.2-1.1.3-1.7.3h-2.9c-.6,0-1.2-.1-1.7-.3-.5-.2-1-.5-1.4-.9s-.7-.8-.9-1.4c-.2-.5-.3-1.1-.3-1.7v-5.8c0-.6.1-1.2.3-1.7.2-.5.5-1,.9-1.4s.8-.7,1.4-.9c.5-.2,1.1-.3,1.7-.3h2.9ZM105.5,28.3c0-.4-.1-.7-.4-1-.3-.3-.6-.4-1-.4h-2.9c-.4,0-.7.1-1,.4-.3.3-.4.6-.4,1v5.8c0,.4.1.7.4,1s.6.4,1,.4h2.9c.4,0,.7-.1,1-.4s.4-.6.4-1v-5.8Z"/>
    <path class="cls-1" d="M118.6,29v-.7c0-.4-.1-.7-.4-1-.3-.3-.6-.4-1-.4h-2.9c-.4,0-.7.1-1,.4-.3.3-.4.6-.4,1v5.8c0,.4.1.7.4,1s.6.4,1,.4h2.9c.4,0,.7-.1,1-.4s.4-.6.4-1v-.7h2.9v.7c0,.6-.1,1.2-.3,1.7-.2.5-.5,1-.9,1.4s-.9.7-1.4.9c-.5.2-1.1.3-1.7.3h-2.9c-.6,0-1.2-.1-1.7-.3-.5-.2-1-.5-1.4-.9s-.7-.8-.9-1.4c-.2-.5-.3-1.1-.3-1.7v-5.8c0-.6.1-1.2.3-1.7.2-.5.5-1,.9-1.4s.8-.7,1.4-.9c.5-.2,1.1-.3,1.7-.3h2.9c.6,0,1.2.1,1.7.3.5.2,1,.5,1.4.9s.7.9.9,1.4.3,1.1.3,1.7v.7h-2.9Z"/>
    <path class="cls-1" d="M136.8,35.5v2.9h-5.8v-2.9h1.4l-.4-1.4h-4.5l-.4,1.4h1.4v2.9h-5.8v-2.9h1.4l3.5-11.6h4.4l3.5,11.6h1.4ZM131,31.2l-1.3-4.3h-.1l-1.3,4.3h2.7Z"/>
    <path class="cls-1" d="M148.1,34.1v4.3h-10.1v-2.9h1.4v-8.7h-1.4v-2.9h5.8v2.9h-1.4v8.7h2.9v-1.4h2.9Z"/>
    <path class="cls-1" d="M165.2,29v-.7c0-.4-.1-.7-.4-1-.3-.3-.6-.4-1-.4h-2.9c-.4,0-.7.1-1,.4-.3.3-.4.6-.4,1v5.8c0,.4.1.7.4,1s.6.4,1,.4h2.9c.4,0,.7-.1,1-.4s.4-.6.4-1v-.6h-2.9v-2.9h5.8v3.5c0,.6-.1,1.2-.3,1.7-.2.5-.5,1-.9,1.4s-.9.7-1.4.9c-.5.2-1.1.3-1.7.3h-2.9c-.6,0-1.2-.1-1.7-.3-.5-.2-1-.5-1.4-.9s-.7-.8-.9-1.4c-.2-.5-.3-1.1-.3-1.7v-5.8c0-.6.1-1.2.3-1.7.2-.5.5-1,.9-1.4s.8-.7,1.4-.9c.5-.2,1.1-.3,1.7-.3h2.9c.6,0,1.2.1,1.7.3.5.2,1,.5,1.4.9s.7.9.9,1.4.3,1.1.3,1.7v.7h-2.9Z"/>
    <path class="cls-1" d="M183.4,35.5v2.9h-5.8v-2.9h1.4l-.4-1.4h-4.5l-.4,1.4h1.4v2.9h-5.8v-2.9h1.4l3.5-11.6h4.4l3.5,11.6h1.4ZM177.7,31.2l-1.3-4.3h-.1l-1.3,4.3h2.7Z"/>
    <path class="cls-1" d="M199.1,23.9v2.9h-1.4v8.7h1.4v2.9h-5.8v-2.9h1.4v-6.2l-2.9,4.6-2.9-4.6v6.2h1.4v2.9h-5.8v-2.9h1.4v-8.7h-1.4v-2.9h4.4l2.8,4.5,2.8-4.5h4.4Z"/>
    <path class="cls-1" d="M210.5,23.9v4.3h-2.9v-1.4h-2.9v2.9h2.9v2.9h-2.9v2.9h2.9v-1.4h2.9v4.3h-10.1v-2.9h1.4v-8.7h-1.4v-2.9h10.1Z"/>
  </g>
  <g>
    <path class="cls-1" d="M101.4,62.3h1.9v3.9h-7.7v-3.9h1.9v-3.9h-5.6v3.9h1.9v3.9h-7.7v-3.9h1.9v-11.6h-1.9v-3.9h7.7v3.9h-1.9v3.9h5.6v-3.9h-1.9v-3.9h7.7v3.9h-1.9v11.6Z"/>
    <path class="cls-1" d="M124,62.3v3.9h-7.7v-3.9h1.8l-.6-1.9h-6l-.6,1.9h1.8v3.9h-7.7v-3.9h1.9l4.6-15.5h5.9l4.6,15.5h1.9ZM116.3,56.5l-1.7-5.8h-.2l-1.7,5.8h3.7Z"/>
    <path class="cls-1" d="M142.9,62.3v3.9h-7.7v-3.9h1.6l-1.8-3.1h-3.5v3.1h1.9v3.9h-7.7v-3.9h1.9v-11.6h-1.9v-3.9h9.2c.8,0,1.6.2,2.4.5.7.3,1.4.8,1.9,1.3.6.6,1,1.2,1.3,1.9.3.7.5,1.5.5,2.4s-.2,1.9-.6,2.7c-.4.8-1,1.5-1.7,2.1l2.6,4.5h1.7ZM131.5,55.4h3.3c.6,0,1.2-.2,1.6-.7.5-.5.7-1,.7-1.6s-.2-1.2-.7-1.6-1-.7-1.6-.7h-3.3v4.6Z"/>
    <path class="cls-1" d="M144.7,50.7h-1.9v-3.9h7.7v3.9h-1.8l3.2,9.8,3.2-9.8h-1.8v-3.9h7.7v3.9h-1.9l-5,15.5h-4.4l-5-15.5Z"/>
    <path class="cls-1" d="M176.3,46.8v5.8h-3.9v-1.9h-3.9v3.9h3.9v3.9h-3.9v3.9h3.9v-1.9h3.9v5.8h-13.6v-3.9h1.9v-11.6h-1.9v-3.9h13.6Z"/>
    <path class="cls-1" d="M185.6,54.6c1.6.2,2.9.6,3.8,1.2.9.5,1.7,1.1,2.2,1.8.5.6.8,1.3,1,1.9.1.6.2,1.1.2,1.5,0,.8-.2,1.5-.5,2.2-.3.7-.8,1.2-1.3,1.7s-1.2.9-2,1.1c-.8.3-1.6.4-2.5.4s-1.8,0-2.5-.3c-.7-.2-1.4-.4-2-.8v.9h-3.9v-5.8h3.9c.3.4.7.7,1,1s.7.5,1,.7c.3.2.7.3,1.1.4.4,0,.9.1,1.4.1s1.3-.1,1.7-.4c.5-.3.7-.7.7-1.1s-.1-.7-.4-1c-.2-.3-.5-.5-.9-.7-.4-.2-.8-.4-1.2-.5s-.9-.2-1.3-.3c-1.6-.2-2.8-.6-3.8-1.1-.9-.5-1.7-1-2.2-1.6-.5-.6-.8-1.2-1-1.8-.2-.6-.2-1.2-.2-1.6,0-.8.2-1.5.5-2.2s.8-1.3,1.3-1.8c.6-.5,1.2-.9,2-1.2.8-.3,1.6-.4,2.5-.4s1.8,0,2.5.3c.7.2,1.3.4,1.9.7v-.8h3.9v5.8h-3.9c-.3-.4-.6-.7-.9-.9-.3-.3-.6-.5-.9-.7-.3-.2-.7-.3-1.1-.4-.4,0-.9-.1-1.4-.1-.8,0-1.4.2-1.8.6-.4.4-.6.8-.6,1.2,0,1.2,1.3,2,3.9,2.4Z"/>
    <path class="cls-1" d="M209.9,46.8v5.8h-3.9v-1.9h-1.9v11.6h1.9v3.9h-7.7v-3.9h1.9v-11.6h-1.9v1.9h-3.9v-5.8h15.5Z"/>
  </g>
  <path class="cls-1" d="M61.8,30.2c-.2,0-.4,0-.5,0,1-.2,2.3-.7,3.8-1.5,3.4-2,5.3-4,5.6-6.1.2-1.5-.5-2.6-.9-3.1s-.9-.3-1.2,0c-.3.3-.3.9,0,1.2,0,0,.6.6.4,1.7-.2,1-1.1,2.7-4.7,4.8-1,.6-1.9,1-2.7,1.2.7-1.8,0-3.4-1-4.2-1.1-.9-2.4-.9-3.2-.2-1,1-1.1,3.5,0,5,.2.3.5.5.8.7-.6.3-1.4.5-2.2.7-1.7.1-4,0-4.7-1.4-1.1-2.2,3.3-5.6,3.3-5.6,0,0,1.1-1.1-2.2-2.2-2.6-.9-8,6.8-10.3,10.4,0,0-.1,0-.2,0-1.6-1-3.5-1.6-5.7-1.6-8.3,0-17.3,8.5-17.3,18.9s6.7,18.9,15,18.9,6.4-1.4,8.9-3.7c2,.4,4.2.5,6.4.5s4.1-.1,5.9-.4c2.5,2.3,5.5,3.6,8.8,3.6,8.3,0,15-8.5,15-18.9s-9-18.9-17.3-18.9ZM37.8,51.1h-3.4v3.4c0,.9-.8,1.7-1.7,1.7s-1.7-.8-1.7-1.7v-3.4h-3.4c-.9,0-1.7-.8-1.7-1.7s.8-1.7,1.7-1.7h3.4v-3.4c0-.9.8-1.7,1.7-1.7s1.7.8,1.7,1.7v3.4h3.4c.9,0,1.7.8,1.7,1.7s-.8,1.7-1.7,1.7ZM58.5,25.2s0,0,.2,0c.2,0,.4,0,.7.3.6.5,1,1.6,0,3-.3,0-.6-.3-.8-.5-.7-.9-.4-2.5-.2-2.8ZM60.7,51.9c-1.3,0-2.3-1-2.3-2.3s1-2.3,2.3-2.3,2.3,1,2.3,2.3-1,2.3-2.3,2.3ZM65.5,56.7c-1.3,0-2.3-1-2.3-2.3s1-2.3,2.3-2.3,2.3,1,2.3,2.3-1,2.3-2.3,2.3ZM65.5,47.1c-1.3,0-2.3-1-2.3-2.3s1-2.3,2.3-2.3,2.3,1,2.3,2.3-1,2.3-2.3,2.3ZM70.4,51.9c-1.3,0-2.3-1-2.3-2.3s1-2.3,2.3-2.3,2.3,1,2.3,2.3-1,2.3-2.3,2.3Z"/>
</svg>