<?xml version="1.0" encoding="UTF-8"?>
<svg id="Layer_1" data-name="Layer 1" xmlns="http://www.w3.org/2000/svg" width="475.41" height="172.52" viewBox="0 0 475.41 172.52">
  <defs>
    <style>
      .cls-1 {
        fill: #ea3657;
      }

      .cls-2 {
        fill: #edde44;
      }

      .cls-3 {
        fill: #fff;
      }

      .cls-4 {
        fill: #6acad0;
      }

      .cls-5 {
        fill: none;
        stroke: #fff;
        stroke-miterlimit: 10;
        stroke-width: 10px;
      }
    </style>
  </defs>
  <g>
    <circle class="cls-5" cx="86.26" cy="86.26" r="81.26" transform="translate(-2.51 2.59) rotate(-1.7)"/>
    <path class="cls-2" d="m42.38,63.69c-11.41,0-20.67,9.25-20.67,20.67s9.25,20.67,20.67,20.67,20.67-9.25,20.67-20.67-9.25-20.67-20.67-20.67Zm5.09,31.59h-9.44v-22.4h3.39v19.2h6.05v3.2Z"/>
    <path class="cls-4" d="m86.36,25.26c-11.41,0-20.67,9.25-20.67,20.67s9.25,20.67,20.67,20.67,20.67-9.25,20.67-20.67-9.25-20.67-20.67-20.67Zm7.71,31.77h-3.39v-15.36l-3.17,15.36h-2.37l-3.17-15.36v15.36h-3.33v-22.4h4.8l2.94,14.3,2.82-14.3h4.86v22.4Z"/>
    <path class="cls-1" d="m130.41,63.69c-11.41,0-20.67,9.25-20.67,20.67s9.25,20.67,20.67,20.67,20.67-9.25,20.67-20.67-9.25-20.67-20.67-20.67Zm5.44,17.17h-3.39v-1.89c0-1.41-.8-2.21-2.05-2.21s-2.05.8-2.05,2.21v12.22c0,1.41.8,2.21,2.05,2.21s2.05-.8,2.05-2.21v-3.97h-2.05v-3.2h5.44v7.17c0,3.23-2.18,5.41-5.44,5.41s-5.44-2.18-5.44-5.41v-12.22c0-3.23,2.18-5.41,5.44-5.41s5.44,2.18,5.44,5.41v1.89Z"/>
    <path class="cls-3" d="m107.03,125.69c0,11.41-9.25,20.67-20.67,20.67s-20.67-9.25-20.67-20.67,9.25-20.67,20.67-20.67,20.67,9.25,20.67,20.67Z"/>
  </g>
  <g>
    <path class="cls-3" d="m186.44,11.69h6.47v36.6h11.53v6.1h-18V11.69Z"/>
    <path class="cls-3" d="m211.94,44.69v-23.3c0-6.16,4.15-10.31,10.37-10.31s10.37,4.15,10.37,10.31v23.3c0,6.16-4.15,10.31-10.37,10.31s-10.37-4.15-10.37-10.31Zm14.27,0v-23.3c0-2.68-1.53-4.21-3.9-4.21s-3.9,1.53-3.9,4.21v23.3c0,2.68,1.53,4.21,3.9,4.21s3.9-1.53,3.9-4.21Z"/>
    <path class="cls-3" d="m242.01,45V11.69h6.47v33.31c0,2.5,1.53,3.9,3.6,3.9s3.6-1.4,3.6-3.9V11.69h6.34v33.31c0,5.98-4.03,10-9.94,10s-10.07-4.03-10.07-10Z"/>
    <path class="cls-3" d="m271.9,11.69h6.47v42.7h-6.47V11.69Z"/>
    <path class="cls-3" d="m287.03,44.51v-1.53l6.22-.67v1.59c0,3.11,1.59,5,4.15,5s4.15-1.59,4.15-4.09c0-2.68-1.1-4.64-5.92-9.21-6.41-6.04-8.24-9.33-8.24-14.03,0-6.34,3.66-10.49,9.82-10.49s9.82,4.15,9.82,10.55v1.1l-6.22.67v-1.22c0-3.29-1.28-5-3.54-5s-3.54,1.4-3.54,4.09,1.34,4.64,5.92,9.21c6.22,6.22,8.24,9.33,8.24,14.03,0,6.1-4.27,10.49-10.43,10.49s-10.43-4.39-10.43-10.49Z"/>
    <path class="cls-3" d="m337.18,11.69l-7.08,42.7h-8.66l-7.08-42.7h6.59l4.88,33.55,4.88-33.55h6.47Z"/>
    <path class="cls-3" d="m345.23,11.69h6.47v42.7h-6.47V11.69Z"/>
    <path class="cls-3" d="m361.82,11.69h6.47v36.6h11.53v6.1h-18V11.69Z"/>
    <path class="cls-3" d="m387.86,11.69h6.47v36.6h11.53v6.1h-18V11.69Z"/>
    <path class="cls-3" d="m413.91,11.69h18.36v6.1h-11.9v11.9h9.46v6.1h-9.46v12.51h11.9v6.1h-18.36V11.69Z"/>
    <path class="cls-3" d="m215.85,63.69v42.7h-6.47v-29.28l-6.04,29.28h-4.51l-6.04-29.28v29.28h-6.34v-42.7h9.15l5.61,27.27,5.37-27.27h9.27Z"/>
    <path class="cls-3" d="m238.72,96.93h-6.95l-1.4,9.46h-6.47l7.08-42.7h8.66l7.08,42.7h-6.59l-1.4-9.46Zm-.85-6.22l-2.62-17.87-2.62,17.87h5.25Z"/>
    <path class="cls-3" d="m263.67,88.82l-2.44,4.7v12.87h-6.47v-42.7h6.47v17.33l8.54-17.33h6.95l-9.09,18.12,9.76,24.58h-6.95l-6.77-17.57Z"/>
    <path class="cls-3" d="m285.26,63.69h18.36v6.1h-11.9v11.9h9.46v6.1h-9.46v12.51h11.9v6.1h-18.36v-42.7Z"/>
    <path class="cls-3" d="m310.64,96.51v-1.53l6.22-.67v1.59c0,3.11,1.59,5,4.15,5s4.15-1.59,4.15-4.09c0-2.68-1.1-4.64-5.92-9.21-6.41-6.04-8.24-9.33-8.24-14.03,0-6.34,3.66-10.49,9.82-10.49s9.82,4.15,9.82,10.55v1.1l-6.22.67v-1.22c0-3.29-1.28-5-3.54-5s-3.54,1.4-3.54,4.09,1.34,4.64,5.92,9.21c6.22,6.22,8.24,9.33,8.24,14.03,0,6.1-4.27,10.49-10.43,10.49s-10.43-4.39-10.43-10.49Z"/>
    <path class="cls-3" d="m200.17,128.99v-3.6c0-2.68-1.52-4.21-3.9-4.21s-3.9,1.53-3.9,4.21v23.3c0,2.68,1.53,4.21,3.9,4.21s3.9-1.53,3.9-4.21v-7.56h-3.9v-6.1h10.37v13.67c0,6.16-4.15,10.31-10.37,10.31s-10.37-4.15-10.37-10.31v-23.3c0-6.16,4.15-10.31,10.37-10.31s10.37,4.15,10.37,10.31v3.6h-6.47Z"/>
    <path class="cls-3" d="m228.72,148.93h-6.96l-1.4,9.46h-6.47l7.08-42.7h8.66l7.08,42.7h-6.59l-1.4-9.46Zm-.85-6.22l-2.62-17.88-2.62,17.88h5.25Z"/>
    <path class="cls-3" d="m274.16,115.69v42.7h-6.47v-29.28l-6.04,29.28h-4.51l-6.04-29.28v29.28h-6.34v-42.7h9.15l5.61,27.27,5.37-27.27h9.27Z"/>
    <path class="cls-3" d="m284.29,115.69h18.36v6.1h-11.9v11.9h9.46v6.1h-9.46v12.51h11.9v6.1h-18.36v-42.7Z"/>
    <path class="cls-3" d="m309.66,148.51v-1.53l6.22-.67v1.59c0,3.11,1.59,5,4.15,5s4.15-1.59,4.15-4.09c0-2.68-1.1-4.64-5.92-9.21-6.41-6.04-8.24-9.33-8.24-14.03,0-6.34,3.66-10.49,9.82-10.49s9.82,4.15,9.82,10.55v1.1l-6.22.67v-1.22c0-3.29-1.28-5-3.54-5s-3.54,1.4-3.54,4.09,1.34,4.64,5.92,9.21c6.22,6.22,8.24,9.33,8.24,14.03,0,6.1-4.27,10.49-10.43,10.49s-10.43-4.39-10.43-10.49Z"/>
    <path class="cls-3" d="m345.65,115.69v13.48l-1.1,18.24h-4.27l-1.1-18.24v-13.48h6.47Zm0,36.24v6.47h-6.47v-6.47h6.47Z"/>
  </g>
</svg>