<?xml version="1.0" encoding="utf-8"?>
<!-- Generator: Adobe Illustrator 22.1.0, SVG Export Plug-In . SVG Version: 6.00 Build 0)  -->
<svg version="1.1" id="Layer_1" xmlns="http://www.w3.org/2000/svg" xmlns:xlink="http://www.w3.org/1999/xlink" x="0px" y="0px"
	 viewBox="0 0 150 150" style="enable-background:new 0 0 150 150;" xml:space="preserve">
<style type="text/css">
	.st0{fill:#00C1BC;}
</style>
<g>
	<g>
		<path class="st0" d="M75,143.6c-37.8,0-68.6-30.8-68.6-68.6S37.2,6.4,75,6.4s68.6,30.8,68.6,68.6S112.8,143.6,75,143.6z M75,9.5
			C38.9,9.5,9.5,38.9,9.5,75s29.4,65.5,65.5,65.5c36.1,0,65.5-29.4,65.5-65.5S111.1,9.5,75,9.5z"/>
	</g>
	<g>
		<path class="st0" d="M38.8,92.1c-10.3,0-18.6-8.4-18.6-18.6s8.4-18.6,18.6-18.6c10.3,0,18.6,8.4,18.6,18.6S49.1,92.1,38.8,92.1z
			 M38.8,57.9c-8.5,0-15.5,6.9-15.5,15.5s6.9,15.5,15.5,15.5c8.5,0,15.5-6.9,15.5-15.5S47.3,57.9,38.8,57.9z"/>
	</g>
	<g>
		<path class="st0" d="M43.2,82.4h-7.8V63.5h2.8v16h4.9V82.4z"/>
	</g>
	<g>
		<path class="st0" d="M75,60.3c-10.3,0-18.6-8.4-18.6-18.6c0-10.3,8.4-18.6,18.6-18.6c10.3,0,18.6,8.4,18.6,18.6
			C93.6,52,85.3,60.3,75,60.3z M75,26.2c-8.5,0-15.5,6.9-15.5,15.5c0,8.5,6.9,15.5,15.5,15.5c8.5,0,15.5-6.9,15.5-15.5
			C90.5,33.2,83.5,26.2,75,26.2z"/>
	</g>
	<g>
		<path class="st0" d="M71.3,51.3h-2.8V32.4h4.1L75.1,46l2.5-13.5h3.9v18.9h-2.8V39.4l-2.5,11.8H74l-2.8-11.8V51.3z"/>
	</g>
	<g>
		<path class="st0" d="M111,92.1c-10.3,0-18.6-8.4-18.6-18.6s8.4-18.6,18.6-18.6c10.3,0,18.6,8.4,18.6,18.6S121.3,92.1,111,92.1z
			 M111,57.9c-8.5,0-15.5,6.9-15.5,15.5s6.9,15.5,15.5,15.5c8.5,0,15.5-6.9,15.5-15.5S119.5,57.9,111,57.9z"/>
	</g>
	<g>
		<path class="st0" d="M111.6,83c-1.3,0-2.3-0.4-3.2-1.3c-0.9-0.9-1.3-1.9-1.3-3.2V68.1c0-1.2,0.4-2.3,1.3-3.2
			c0.9-0.9,1.9-1.3,3.2-1.3c1.3,0,2.3,0.4,3.2,1.3c0.9,0.9,1.3,1.9,1.3,3.2v2.1h-2.9v-2.2c0-0.5-0.2-0.8-0.5-1.2
			c-0.3-0.3-0.7-0.5-1.2-0.5c-0.4,0-0.8,0.2-1.1,0.5c-0.3,0.3-0.5,0.7-0.5,1.2v10.3c0,0.5,0.2,0.8,0.5,1.2c0.3,0.3,0.7,0.5,1.1,0.5
			c0.5,0,0.8-0.2,1.2-0.5c0.3-0.3,0.5-0.7,0.5-1.2v-3.7h-1.6v-2.8h4.5v6.6c0,1.3-0.4,2.3-1.3,3.2C113.9,82.5,112.8,83,111.6,83z"/>
	</g>
	<g>
		<path class="st0" d="M75,126.2c-10.3,0-18.6-8.4-18.6-18.6c0-10.3,8.4-18.6,18.6-18.6c10.3,0,18.6,8.4,18.6,18.6
			C93.6,117.8,85.3,126.2,75,126.2z M75,92.1c-8.5,0-15.5,6.9-15.5,15.5c0,8.5,6.9,15.5,15.5,15.5c8.5,0,15.5-6.9,15.5-15.5
			C90.5,99,83.5,92.1,75,92.1z"/>
	</g>
</g>
</svg>
