<?xml version="1.0" encoding="utf-8"?>
<!-- Generator: Adobe Illustrator 22.1.0, SVG Export Plug-In . SVG Version: 6.00 Build 0)  -->
<svg version="1.1" id="Layer_1" xmlns="http://www.w3.org/2000/svg" xmlns:xlink="http://www.w3.org/1999/xlink" x="0px" y="0px"
	 viewBox="0 0 150 150" style="enable-background:new 0 0 150 150;" xml:space="preserve">
<style type="text/css">
	.st0{fill:#00C1BC;}
</style>
<g>
	<path class="st0" d="M95.6,143.7h-59c-3,0-5.5-2.5-5.5-5.5V10.8c0-3,2.5-5.5,5.5-5.5h73.9c3,0,5.5,2.5,5.5,5.5v2c0,0,0,0,0,0
		c0,0,0,0,0,0v110.5C115.9,134.6,106.8,143.7,95.6,143.7C95.6,143.7,95.6,143.7,95.6,143.7z M34.3,14.4v123.8c0,1.3,1,2.3,2.3,2.3
		h59c9.5,0,17.2-7.7,17.2-17.2V14.4H34.3z M100.6,11.3h12.2v-0.5c0-1.3-1.1-2.3-2.3-2.3h-9.9V11.3z M47.4,11.3h50V8.5h-50V11.3z
		 M34.3,11.3h10V8.5h-7.7c-1.3,0-2.3,1-2.3,2.3V11.3z M90.1,138.7c-0.5,0-1-0.2-1.3-0.7l-8.7-12.2c-0.5-0.7-0.3-1.7,0.4-2.2
		c0.7-0.5,1.7-0.3,2.2,0.4l8.7,12.2c0.5,0.7,0.3,1.7-0.4,2.2C90.7,138.6,90.4,138.7,90.1,138.7z M96.1,134.5c-0.5,0-1-0.2-1.3-0.7
		l-8.7-12.2c-0.5-0.7-0.3-1.7,0.4-2.2c0.7-0.5,1.7-0.3,2.2,0.4l8.7,12.2c0.5,0.7,0.3,1.7-0.4,2.2C96.7,134.4,96.4,134.5,96.1,134.5z
		 M102.1,130.2c-0.5,0-1-0.2-1.3-0.7l-8.7-12.2c-0.5-0.7-0.3-1.7,0.4-2.2c0.7-0.5,1.7-0.3,2.2,0.4l8.7,12.2c0.5,0.7,0.3,1.7-0.4,2.2
		C102.7,130.1,102.4,130.2,102.1,130.2z M108.1,125.9c-0.5,0-1-0.2-1.3-0.7L98.2,113c-0.5-0.7-0.3-1.7,0.4-2.2
		c0.7-0.5,1.7-0.3,2.2,0.4l8.7,12.2c0.5,0.7,0.3,1.7-0.4,2.2C108.8,125.8,108.5,125.9,108.1,125.9z M66,125.5
		c-0.6,0-1.1-0.3-1.4-0.8c-0.4-0.8-0.1-1.7,0.6-2.1l7.6-4.1c0.8-0.4,1.7-0.1,2.1,0.6c0.4,0.8,0.1,1.7-0.6,2.1l-7.6,4.1
		C66.5,125.4,66.2,125.5,66,125.5z M52.2,125.5c-0.6,0-1.1-0.3-1.4-0.8c-0.4-0.8-0.1-1.7,0.6-2.1l7.6-4.1c0.8-0.4,1.7-0.1,2.1,0.6
		c0.4,0.8,0.1,1.7-0.6,2.1l-7.6,4.1C52.7,125.4,52.5,125.5,52.2,125.5z M52.8,111.7h-7.4c-0.9,0-1.6-0.7-1.6-1.6v-5.6h-5.6
		c-0.9,0-1.6-0.7-1.6-1.6v-7.4c0-0.9,0.7-1.6,1.6-1.6h5.6v-5.6c0-0.9,0.7-1.6,1.6-1.6h7.4c0.9,0,1.6,0.7,1.6,1.6V94H60
		c0.9,0,1.6,0.7,1.6,1.6v7.4c0,0.9-0.7,1.6-1.6,1.6h-5.6v5.6C54.4,111,53.7,111.7,52.8,111.7z M47,108.6h4.2V103
		c0-0.9,0.7-1.6,1.6-1.6h5.6v-4.2h-5.6c-0.9,0-1.6-0.7-1.6-1.6V90H47v5.6c0,0.9-0.7,1.6-1.6,1.6h-5.6v4.2h5.6c0.9,0,1.6,0.7,1.6,1.6
		V108.6z M84.8,108.9c0,0-0.1,0-0.1,0c-3.8,0-6.9-3.1-6.9-6.9c0,0,0-0.1,0-0.1c0-3.8,3.1-6.8,6.9-6.8c0,0,0.1,0,0.1,0
		c3.8,0,6.9,3.1,6.9,6.9l0,0.1C91.6,105.9,88.5,108.9,84.8,108.9z M84.7,98.3c-2.1,0-3.7,1.7-3.8,3.7l-1.6,0H81
		c0,2.1,1.7,3.7,3.7,3.7c1,0,2-0.4,2.7-1.1c0.7-0.7,1.1-1.6,1.1-2.6C88.5,100,86.8,98.3,84.7,98.3z M100.1,96.7
		C100,96.7,100,96.7,100.1,96.7c-3.8,0-6.9-3.1-6.9-6.9c0,0,0,0,0,0v0c0,0,0-0.1,0-0.1c0-3.8,3.1-6.8,6.9-6.8c0,0,0,0,0.1,0
		c3.8,0,6.9,3.1,6.9,6.9c0,0,0,0.1,0,0.1C106.9,93.6,103.8,96.7,100.1,96.7z M96.3,89.8c0,2.1,1.7,3.7,3.8,3.7c0,0,0,0,0,0
		c2.1,0,3.8-1.7,3.8-3.7c0-2.1-1.7-3.8-3.8-3.8c0,0,0,0,0,0C98,86,96.3,87.7,96.3,89.8l-1.6,0L96.3,89.8z M43.2,69.2
		c-3,0-5.4-2.4-5.4-5.4V23.1c0-3,2.4-5.4,5.4-5.4h59.6c3,0,5.4,2.5,5.4,5.4v40.7c0,0.2,0,0.4-0.1,0.6c-0.3,2.7-2.5,4.8-5.3,4.9
		L43.2,69.2z M102.8,20.8H43.2c-1.2,0-2.3,1-2.3,2.3v40.7c0,1.3,1,2.3,2.3,2.3h59.6c1.2,0,2.2-1.1,2.2-2.3c0-0.2,0-0.3,0.1-0.5V23.1
		C105.1,21.8,104.1,20.8,102.8,20.8z M92.9,62.5H52.2c-0.9,0-1.6-0.7-1.6-1.6V25.5c0-0.9,0.7-1.6,1.6-1.6h40.7
		c0.4,0,0.8,0.2,1.1,0.5c0.3,0.3,0.5,0.7,0.5,1.1l0,35.4C94.5,61.8,93.8,62.5,92.9,62.5z M53.8,59.3h37.6l0-32.2H53.8V59.3z"/>
</g>
</svg>
