<?xml version="1.0" encoding="utf-8"?>
<!-- Generator: Adobe Illustrator 22.1.0, SVG Export Plug-In . SVG Version: 6.00 Build 0)  -->
<svg version="1.1" id="Layer_1" xmlns="http://www.w3.org/2000/svg" xmlns:xlink="http://www.w3.org/1999/xlink" x="0px" y="0px"
	 viewBox="0 0 150 150" style="enable-background:new 0 0 150 150;" xml:space="preserve">
<style type="text/css">
	.st0{fill:#00C1BC;}
</style>
<g transform="translate(0,-952.36218)">
	<path class="st0" d="M44,959.2c-4.2,0-7.6,3.4-7.6,7.6v121.8c0,4.2,3.4,7.6,7.6,7.6h63.9c4.2,0,7.6-3.4,7.6-7.6V966.9
		c0-4.2-3.4-7.6-7.6-7.6H44z M44,962.3h63.9c2.6,0,4.6,2,4.6,4.6v7.6H39.4v-7.6C39.4,964.3,41.4,962.3,44,962.3z M39.4,977.5h73.1
		v94.4H39.4V977.5z M75.9,997.3c-0.3,0-0.5,0.1-0.7,0.2l-21.3,12.2c-0.5,0.3-0.8,0.8-0.8,1.3v24.4c0,0.5,0.3,1,0.8,1.3l21.3,12.2
		c0.2,0.1,0.4,0.2,0.7,0.2c0.3,0,0.6-0.1,0.9-0.2l21.3-12.2c0.5-0.3,0.8-0.8,0.8-1.3V1011c0-0.5-0.3-1-0.8-1.3l-21.3-12.2
		C76.4,997.4,76.2,997.3,75.9,997.3z M75.9,1000.6l18.2,10.4l-18.2,10.4L57.7,1011L75.9,1000.6L75.9,1000.6z M56.2,1013.6l18.2,10.4
		v20.9l-18.2-10.4V1013.6z M95.7,1013.6v20.9l-18.2,10.4V1024L95.7,1013.6z M39.4,1074.9h73.1v13.7c0,2.6-2,4.6-4.6,4.6H44
		c-2.6,0-4.6-2-4.6-4.6V1074.9z M65.3,1082.5c-0.8,0-1.5,0.7-1.5,1.5s0.7,1.5,1.5,1.5h21.3c0.8,0,1.5-0.7,1.5-1.5s-0.7-1.5-1.5-1.5
		H65.3z"/>
</g>
</svg>
