<?xml version="1.0" encoding="utf-8"?>
<!-- Generator: Adobe Illustrator 22.1.0, SVG Export Plug-In . SVG Version: 6.00 Build 0)  -->
<svg version="1.1" id="Layer_1" xmlns="http://www.w3.org/2000/svg" xmlns:xlink="http://www.w3.org/1999/xlink" x="0px" y="0px"
	 viewBox="0 0 150 150" style="enable-background:new 0 0 150 150;" xml:space="preserve">
<style type="text/css">
	.st0{fill:#00C1BC;}
</style>
<g>
	<path class="st0" d="M136.1,110.6c-3.2,0-4.8,1-6.2,1.8c-1.3,0.8-2.4,1.4-4.6,1.4c-2.2,0-3.4-0.6-4.6-1.4c-1.4-0.8-3-1.8-6.2-1.8
		s-4.8,1-6.2,1.8c-1.3,0.8-2.4,1.4-4.6,1.4c-2.2,0-3.4-0.6-4.6-1.4c-1.4-0.8-3-1.8-6.2-1.8c-3.2,0-4.8,1-6.2,1.8
		c-1.3,0.8-2.4,1.4-4.6,1.4c-2.2,0-3.4-0.6-4.6-1.4c-1.4-0.8-3-1.8-6.2-1.8c-3.2,0-4.8,1-6.2,1.8c-1.3,0.8-2.4,1.4-4.6,1.4
		s-3.4-0.6-4.6-1.4c-1.4-0.8-3-1.8-6.2-1.8c-3.2,0-4.8,1-6.2,1.8c-1.3,0.8-2.4,1.4-4.6,1.4c-2.2,0-3.4-0.6-4.6-1.4
		c-1.4-0.8-3-1.8-6.2-1.8s-4.8,1-6.2,1.8c-1.3,0.8-2.4,1.4-4.6,1.4c-1,0-1.6,0.6-1.6,1.6s0.6,1.6,1.6,1.6c3.2,0,4.8-1,6.2-1.8
		c1.3-0.8,2.4-1.4,4.6-1.4s3.4,0.6,4.6,1.4c1.4,0.8,3,1.8,6.2,1.8c3.2,0,4.8-1,6.2-1.8c1.3-0.8,2.4-1.4,4.6-1.4
		c2.2,0,3.4,0.6,4.6,1.4c1.4,0.8,3,1.8,6.2,1.8c3.2,0,4.8-1,6.2-1.8c1.3-0.8,2.4-1.4,4.6-1.4c2.2,0,3.4,0.6,4.6,1.4
		c1.4,0.8,3,1.8,6.2,1.8c3.2,0,4.8-1,6.2-1.8c1.3-0.8,2.4-1.4,4.6-1.4c2.2,0,3.4,0.6,4.6,1.4c1.4,0.8,3,1.8,6.2,1.8
		c3.2,0,4.8-1,6.2-1.8c1.3-0.8,2.4-1.4,4.6-1.4c2.2,0,3.4,0.6,4.6,1.4c1.4,0.8,3,1.8,6.2,1.8c3.2,0,4.8-1,6.2-1.8
		c1.3-0.8,2.4-1.4,4.6-1.4c1,0,1.6-0.6,1.6-1.6S137,110.6,136.1,110.6z"/>
	<path class="st0" d="M136.1,121.5c-3.2,0-4.8,1-6.2,1.8c-1.3,0.8-2.4,1.4-4.6,1.4c-2.2,0-3.4-0.6-4.6-1.4c-1.4-0.8-3-1.8-6.2-1.8
		s-4.8,1-6.2,1.8c-1.3,0.8-2.4,1.4-4.6,1.4c-2.2,0-3.4-0.6-4.6-1.4c-1.4-0.8-3-1.8-6.2-1.8c-3.2,0-4.8,1-6.2,1.8
		c-1.3,0.8-2.4,1.4-4.6,1.4c-2.2,0-3.4-0.6-4.6-1.4c-1.4-0.8-3-1.8-6.2-1.8c-3.2,0-4.8,1-6.2,1.8c-1.3,0.8-2.4,1.4-4.6,1.4
		s-3.4-0.6-4.6-1.4c-1.4-0.8-3-1.8-6.2-1.8c-3.2,0-4.8,1-6.2,1.8c-1.3,0.8-2.4,1.4-4.6,1.4c-2.2,0-3.4-0.6-4.6-1.4
		c-1.4-0.8-3-1.8-6.2-1.8s-4.8,1-6.2,1.8c-1.3,0.8-2.4,1.4-4.6,1.4c-1,0-1.6,0.6-1.6,1.6s0.6,1.6,1.6,1.6c3.2,0,4.8-1,6.2-1.8
		c1.3-0.8,2.4-1.4,4.6-1.4s3.4,0.6,4.6,1.4c1.1,0.8,2.7,1.8,5.9,1.8c3.2,0,4.8-1,6.2-1.8c1.3-0.8,2.4-1.4,4.6-1.4
		c2.2,0,3.4,0.6,4.6,1.4c1.4,0.8,3,1.8,6.2,1.8c3.2,0,4.8-1,6.2-1.8c1.3-0.8,2.4-1.4,4.6-1.4c2.2,0,3.4,0.6,4.6,1.4
		c1.4,0.8,3,1.8,6.2,1.8c3.2,0,4.8-1,6.2-1.8c1.3-0.8,2.4-1.4,4.6-1.4s3.4,0.6,4.6,1.4c1.4,0.8,3,1.8,6.2,1.8c3.2,0,4.8-1,6.2-1.8
		c1.3-0.8,2.4-1.4,4.6-1.4c2.2,0,3.4,0.6,4.6,1.4c1.4,0.8,3,1.8,6.2,1.8s4.8-1,6.2-1.8c1.3-0.8,2.4-1.4,4.6-1.4c1,0,1.6-0.6,1.6-1.6
		S137,121.5,136.1,121.5z"/>
	<path class="st0" d="M136.1,132.6c-3.2,0-4.8,1-6.2,1.8c-1.3,0.8-2.4,1.4-4.6,1.4c-2.2,0-3.4-0.6-4.6-1.4c-1.4-0.8-3-1.8-6.2-1.8
		s-4.8,1-6.2,1.8c-1.3,0.8-2.4,1.4-4.6,1.4c-2.2,0-3.4-0.6-4.6-1.4c-1.4-0.8-3-1.8-6.2-1.8c-3.2,0-4.8,1-6.2,1.8
		c-1.3,0.8-2.4,1.4-4.6,1.4c-2.2,0-3.4-0.6-4.6-1.4c-1.4-0.8-3-1.8-6.2-1.8c-3.2,0-4.8,1-6.2,1.8c-1.3,0.8-2.4,1.4-4.6,1.4
		s-3.4-0.6-4.6-1.4c-1.4-0.8-3-1.8-6.2-1.8c-3.2,0-4.8,1-6.2,1.8c-1.3,0.8-2.4,1.4-4.6,1.4c-2.2,0-3.4-0.6-4.6-1.4
		c-1.4-0.8-3-1.8-6.2-1.8s-4.8,1-6.2,1.8c-1.3,0.8-2.4,1.4-4.6,1.4c-1,0-1.6,0.6-1.6,1.6s0.6,1.6,1.6,1.6c3.2,0,4.8-1,6.2-1.8
		c1.3-0.8,2.4-1.4,4.6-1.4s3.4,0.6,4.6,1.4c1.4,0.8,3,1.8,6.2,1.8c3.2,0,4.8-1,6.2-1.8c1.3-0.8,2.4-1.4,4.6-1.4
		c2.2,0,3.4,0.6,4.6,1.4c1.4,0.8,3,1.8,6.2,1.8c3.2,0,4.8-1,6.2-1.8c1.3-0.8,2.4-1.4,4.6-1.4c2.2,0,3.4,0.6,4.6,1.4
		c1.4,0.8,3,1.8,6.2,1.8c3.2,0,4.8-1,6.2-1.8c1.3-0.8,2.4-1.4,4.6-1.4c2.2,0,3.4,0.6,4.6,1.4c1.4,0.8,3,1.8,6.2,1.8
		c3.2,0,4.8-1,6.2-1.8c1.3-0.8,2.4-1.4,4.6-1.4c2.2,0,3.4,0.6,4.6,1.4c1.4,0.8,3,1.8,6.2,1.8c3.2,0,4.8-1,6.2-1.8
		c1.3-0.8,2.4-1.4,4.6-1.4c1,0,1.6-0.6,1.6-1.6S137,132.6,136.1,132.6z"/>
	<path class="st0" d="M136.1,100.5h-4V17.1c0-1-0.6-1.6-1.6-1.6H99.7c-1,0-1.6,0.6-1.6,1.6v83.4h-3.4V80c0-0.2,0-0.5-0.2-0.6
		l-7.2-17.9V41.8c0-1-0.6-1.6-1.6-1.6H56.5c-1,0-1.6,0.6-1.6,1.6v58.8H51V30.9c0-1-0.6-1.6-1.6-1.6h-0.5c-0.3-2.6-2.4-4.6-4.6-5.6
		v-0.2c0-3.4-2.9-5.9-5.3-5.9h-1.9v-7.2c0-1-0.6-1.6-1.6-1.6s-1.6,0.6-1.6,1.6v7.2h-1.9c-2.4,0-5.3,2.7-5.3,5.9v0.2
		c-2.2,1-4.3,3.2-4.6,5.6h-0.5c-1,0-1.6,0.6-1.6,1.6v69.7h-4c-1,0-1.6,0.6-1.6,1.6s0.6,1.6,1.6,1.6h120.3c1,0,1.6-0.6,1.6-1.6
		S137,100.5,136.1,100.5z M101.3,18.7h27.5v81.8h-27.5V18.7z M58.1,43.4h26.3v18.4c0,0.2,0,0.5,0.2,0.6l7.2,17.9v20.2H58.1V43.4z
		 M31.8,20.6H39c0.5,0,1.8,1,1.9,2.2H29.9C30.2,21.6,31.3,20.6,31.8,20.6z M29.5,26.1h11.9c1.4,0,3.7,1.4,4.2,3.2H25.2
		C25.9,27.5,28.1,26.1,29.5,26.1z M23.1,32.5h24.7v68.1H23.1V32.5z"/>
	<path class="st0" d="M122.4,24.3c-1,0-1.6,0.6-1.6,1.6v4.6c0,1,0.6,1.6,1.6,1.6s1.6-0.6,1.6-1.6v-4.6
		C124,24.9,123.4,24.3,122.4,24.3z"/>
	<path class="st0" d="M114.9,24.3c-1,0-1.6,0.6-1.6,1.6v4.6c0,1,0.6,1.6,1.6,1.6s1.6-0.6,1.6-1.6v-4.6
		C116.5,24.9,115.7,24.3,114.9,24.3z"/>
	<path class="st0" d="M107.2,24.3c-1,0-1.6,0.6-1.6,1.6v4.6c0,1,0.6,1.6,1.6,1.6s1.6-0.6,1.6-1.6v-4.6
		C108.8,24.9,108.2,24.3,107.2,24.3z"/>
	<path class="st0" d="M122.4,36.3c-1,0-1.6,0.6-1.6,1.6v4.6c0,1,0.6,1.6,1.6,1.6s1.6-0.6,1.6-1.6v-4.6
		C124,37.1,123.4,36.3,122.4,36.3z"/>
	<path class="st0" d="M114.9,36.3c-1,0-1.6,0.6-1.6,1.6v4.6c0,1,0.6,1.6,1.6,1.6s1.6-0.6,1.6-1.6v-4.6
		C116.5,37.1,115.7,36.3,114.9,36.3z"/>
	<path class="st0" d="M107.2,36.3c-1,0-1.6,0.6-1.6,1.6v4.6c0,1,0.6,1.6,1.6,1.6s1.6-0.6,1.6-1.6v-4.6
		C108.8,37.1,108.2,36.3,107.2,36.3z"/>
	<path class="st0" d="M122.4,48.5c-1,0-1.6,0.6-1.6,1.6v4.6c0,1,0.6,1.6,1.6,1.6s1.6-0.6,1.6-1.6v-4.6
		C124,49.1,123.4,48.5,122.4,48.5z"/>
	<path class="st0" d="M114.9,48.5c-1,0-1.6,0.6-1.6,1.6v4.6c0,1,0.6,1.6,1.6,1.6s1.6-0.6,1.6-1.6v-4.6
		C116.5,49.1,115.7,48.5,114.9,48.5z"/>
	<path class="st0" d="M107.2,48.5c-1,0-1.6,0.6-1.6,1.6v4.6c0,1,0.6,1.6,1.6,1.6s1.6-0.6,1.6-1.6v-4.6
		C108.8,49.1,108.2,48.5,107.2,48.5z"/>
	<path class="st0" d="M122.4,60.5c-1,0-1.6,0.6-1.6,1.6v4.6c0,1,0.6,1.6,1.6,1.6s1.6-0.6,1.6-1.6v-4.6
		C124,61.3,123.4,60.5,122.4,60.5z"/>
	<path class="st0" d="M114.9,60.5c-1,0-1.6,0.6-1.6,1.6v4.6c0,1,0.6,1.6,1.6,1.6s1.6-0.6,1.6-1.6v-4.6
		C116.5,61.3,115.7,60.5,114.9,60.5z"/>
	<path class="st0" d="M107.2,60.5c-1,0-1.6,0.6-1.6,1.6v4.6c0,1,0.6,1.6,1.6,1.6s1.6-0.6,1.6-1.6v-4.6
		C108.8,61.3,108.2,60.5,107.2,60.5z"/>
	<path class="st0" d="M122.4,72.7c-1,0-1.6,0.6-1.6,1.6v4.6c0,1,0.6,1.6,1.6,1.6s1.6-0.6,1.6-1.6v-4.6
		C124,73.3,123.4,72.7,122.4,72.7z"/>
	<path class="st0" d="M114.9,72.7c-1,0-1.6,0.6-1.6,1.6v4.6c0,1,0.6,1.6,1.6,1.6s1.6-0.6,1.6-1.6v-4.6
		C116.5,73.3,115.7,72.7,114.9,72.7z"/>
	<path class="st0" d="M107.2,72.7c-1,0-1.6,0.6-1.6,1.6v4.6c0,1,0.6,1.6,1.6,1.6s1.6-0.6,1.6-1.6v-4.6
		C108.8,73.3,108.2,72.7,107.2,72.7z"/>
	<path class="st0" d="M122.4,84.7c-1,0-1.6,0.6-1.6,1.6v4.6c0,1,0.6,1.6,1.6,1.6s1.6-0.6,1.6-1.6v-4.6
		C124,85.5,123.4,84.7,122.4,84.7z"/>
	<path class="st0" d="M114.9,84.7c-1,0-1.6,0.6-1.6,1.6v4.6c0,1,0.6,1.6,1.6,1.6s1.6-0.6,1.6-1.6v-4.6
		C116.5,85.5,115.7,84.7,114.9,84.7z"/>
	<path class="st0" d="M107.2,84.7c-1,0-1.6,0.6-1.6,1.6v4.6c0,1,0.6,1.6,1.6,1.6s1.6-0.6,1.6-1.6v-4.6
		C108.8,85.5,108.2,84.7,107.2,84.7z"/>
	<path class="st0" d="M79,48.5c-1,0-1.6,0.6-1.6,1.6v4.6c0,1,0.6,1.6,1.6,1.6s1.6-0.6,1.6-1.6v-4.6C80.6,49.1,80,48.5,79,48.5z"/>
	<path class="st0" d="M71.5,48.5c-1,0-1.6,0.6-1.6,1.6v4.6c0,1,0.6,1.6,1.6,1.6c1,0,1.6-0.6,1.6-1.6v-4.6
		C73.1,49.1,72.3,48.5,71.5,48.5z"/>
	<path class="st0" d="M63.8,48.5c-1,0-1.6,0.6-1.6,1.6v4.6c0,1,0.6,1.6,1.6,1.6c1,0,1.6-0.6,1.6-1.6v-4.6
		C65.4,49.1,64.8,48.5,63.8,48.5z"/>
	<path class="st0" d="M79,60.5c-1,0-1.6,0.6-1.6,1.6v4.6c0,1,0.6,1.6,1.6,1.6s1.6-0.6,1.6-1.6v-4.6C80.6,61.3,80,60.5,79,60.5z"/>
	<path class="st0" d="M71.5,60.5c-1,0-1.6,0.6-1.6,1.6v4.6c0,1,0.6,1.6,1.6,1.6c1,0,1.6-0.6,1.6-1.6v-4.6
		C73.1,61.3,72.3,60.5,71.5,60.5z"/>
	<path class="st0" d="M63.8,60.5c-1,0-1.6,0.6-1.6,1.6v4.6c0,1,0.6,1.6,1.6,1.6c1,0,1.6-0.6,1.6-1.6v-4.6
		C65.4,61.3,64.8,60.5,63.8,60.5z"/>
	<path class="st0" d="M79,72.7c-1,0-1.6,0.6-1.6,1.6v4.6c0,1,0.6,1.6,1.6,1.6s1.6-0.6,1.6-1.6v-4.6C80.6,73.3,80,72.7,79,72.7z"/>
	<path class="st0" d="M71.5,72.7c-1,0-1.6,0.6-1.6,1.6v4.6c0,1,0.6,1.6,1.6,1.6c1,0,1.6-0.6,1.6-1.6v-4.6
		C73.1,73.3,72.3,72.7,71.5,72.7z"/>
	<path class="st0" d="M63.8,72.7c-1,0-1.6,0.6-1.6,1.6v4.6c0,1,0.6,1.6,1.6,1.6c1,0,1.6-0.6,1.6-1.6v-4.6
		C65.4,73.3,64.8,72.7,63.8,72.7z"/>
	<path class="st0" d="M79,84.7c-1,0-1.6,0.6-1.6,1.6v4.6c0,1,0.6,1.6,1.6,1.6s1.6-0.6,1.6-1.6v-4.6C80.6,85.5,80,84.7,79,84.7z"/>
	<path class="st0" d="M71.5,84.7c-1,0-1.6,0.6-1.6,1.6v4.6c0,1,0.6,1.6,1.6,1.6c1,0,1.6-0.6,1.6-1.6v-4.6
		C73.1,85.5,72.3,84.7,71.5,84.7z"/>
	<path class="st0" d="M63.8,84.7c-1,0-1.6,0.6-1.6,1.6v4.6c0,1,0.6,1.6,1.6,1.6c1,0,1.6-0.6,1.6-1.6v-4.6
		C65.4,85.5,64.8,84.7,63.8,84.7z"/>
	<path class="st0" d="M42,57.8c-1,0-1.6,0.6-1.6,1.6v12.5c0,1,0.6,1.6,1.6,1.6s1.6-0.6,1.6-1.6V59.4C43.6,58.4,43,57.8,42,57.8z"/>
	<path class="st0" d="M35.5,57.8c-1,0-1.6,0.6-1.6,1.6v12.5c0,1,0.6,1.6,1.6,1.6s1.6-0.6,1.6-1.6V59.4
		C37.1,58.4,36.3,57.8,35.5,57.8z"/>
	<path class="st0" d="M28.7,57.8c-1,0-1.6,0.6-1.6,1.6v12.5c0,1,0.6,1.6,1.6,1.6s1.6-0.6,1.6-1.6V59.4
		C30.3,58.4,29.7,57.8,28.7,57.8z"/>
	<path class="st0" d="M42,37.8c-1,0-1.6,0.6-1.6,1.6v12.3c0,1,0.6,1.6,1.6,1.6s1.6-0.6,1.6-1.6V39.2C43.6,38.4,43,37.8,42,37.8z"/>
	<path class="st0" d="M35.5,37.8c-1,0-1.6,0.6-1.6,1.6v12.3c0,1,0.6,1.6,1.6,1.6s1.6-0.6,1.6-1.6V39.2
		C37.1,38.4,36.3,37.8,35.5,37.8z"/>
	<path class="st0" d="M28.7,37.8c-1,0-1.6,0.6-1.6,1.6v12.3c0,1,0.6,1.6,1.6,1.6s1.6-0.6,1.6-1.6V39.2
		C30.3,38.4,29.7,37.8,28.7,37.8z"/>
	<path class="st0" d="M42,77.3c-1,0-1.6,0.6-1.6,1.6v12.5c0,1,0.6,1.6,1.6,1.6s1.6-0.6,1.6-1.6V78.9C43.6,78.1,43,77.3,42,77.3z"/>
	<path class="st0" d="M35.5,77.3c-1,0-1.6,0.6-1.6,1.6v12.5c0,1,0.6,1.6,1.6,1.6s1.6-0.6,1.6-1.6V78.9
		C37.1,78.1,36.3,77.3,35.5,77.3z"/>
	<path class="st0" d="M28.7,77.3c-1,0-1.6,0.6-1.6,1.6v12.5c0,1,0.6,1.6,1.6,1.6s1.6-0.6,1.6-1.6V78.9
		C30.3,78.1,29.7,77.3,28.7,77.3z"/>
</g>
</svg>
