<?xml version="1.0" encoding="utf-8"?>
<!-- Generator: Adobe Illustrator 22.1.0, SVG Export Plug-In . SVG Version: 6.00 Build 0)  -->
<svg version="1.1" id="Layer_1" xmlns="http://www.w3.org/2000/svg" xmlns:xlink="http://www.w3.org/1999/xlink" x="0px" y="0px"
	 viewBox="0 0 692.9 157.8" style="enable-background:new 0 0 692.9 157.8;" xml:space="preserve">
<style type="text/css">
	.st0{fill:#FFFFFF;}
	.st1{fill:#00ABC2;}
</style>
<g>
	<g>
		<path class="st0" d="M63.4,71.1h-3.9c-0.5,0-0.8-0.1-1.1-0.4s-0.5-0.6-0.7-1l-8.3-20.4H14.8L6.6,69.7c-0.1,0.4-0.4,0.7-0.7,0.9
			c-0.3,0.3-0.7,0.4-1.2,0.4H0.8L29.6,0.8h5.1L63.4,71.1z M16.4,45.5h31.5L33.5,10c-0.2-0.6-0.5-1.2-0.7-1.9
			c-0.2-0.7-0.5-1.5-0.7-2.3c-0.2,0.8-0.5,1.5-0.7,2.3c-0.2,0.7-0.5,1.4-0.7,2L16.4,45.5z"/>
		<path class="st0" d="M79.6,66.8h33.3v4.3H74.5V0.8h5.1V66.8z"/>
		<path class="st0" d="M167.5,0.8V5h-37v28.4h30.8v4.1h-30.8v29.3h37v4.2h-42.1V0.8H167.5z"/>
		<path class="st0" d="M199.9,35L175.6,0.8h5c0.5,0,0.8,0.1,1,0.3c0.2,0.2,0.4,0.4,0.6,0.7l21.4,30.8c0.1-0.3,0.2-0.5,0.3-0.8
			s0.3-0.5,0.4-0.8L225,1.8c0.2-0.3,0.4-0.5,0.6-0.7c0.2-0.2,0.5-0.3,0.8-0.3h4.9l-24.3,34l25.3,36.3h-5c-0.5,0-0.8-0.1-1.1-0.4
			c-0.3-0.3-0.5-0.6-0.6-0.8l-22.2-32.4c-0.1,0.5-0.4,1-0.7,1.4l-21.8,30.9c-0.2,0.3-0.5,0.6-0.8,0.8c-0.3,0.3-0.6,0.4-1,0.4h-4.6
			L199.9,35z"/>
		<path class="st0" d="M262.8,71.1V0.8H283c4,0,7.5,0.4,10.4,1.2c2.9,0.8,5.4,2,7.3,3.5c1.9,1.5,3.4,3.4,4.3,5.6
			c0.9,2.2,1.4,4.7,1.4,7.5c0,1.9-0.3,3.6-1,5.4c-0.6,1.7-1.6,3.3-2.8,4.8c-1.2,1.5-2.7,2.7-4.5,3.8c-1.8,1.1-3.8,1.9-6.1,2.5
			c5.5,0.8,9.8,2.7,12.8,5.5c3,2.8,4.5,6.6,4.5,11.3c0,3-0.5,5.7-1.6,8c-1.1,2.4-2.6,4.4-4.6,6.1c-2,1.7-4.5,2.9-7.5,3.8
			c-2.9,0.9-6.3,1.3-10,1.3H262.8z M267.9,33.7h15.2c3.2,0,6-0.4,8.3-1.2c2.3-0.8,4.2-1.9,5.7-3.3c1.5-1.4,2.6-2.9,3.3-4.6
			c0.7-1.7,1-3.5,1-5.3c0-4.7-1.5-8.3-4.5-10.8c-3-2.4-7.6-3.7-13.9-3.7h-15.2V33.7z M267.9,37.4V67h17.6c6.2,0,10.9-1.3,14-4
			c3.1-2.7,4.7-6.4,4.7-11.3c0-2.2-0.4-4.2-1.3-6c-0.8-1.8-2.1-3.3-3.7-4.5s-3.5-2.2-5.9-2.9c-2.3-0.7-5-1-7.9-1H267.9z"/>
		<path class="st0" d="M368.6,0.8V5h-37v28.4h30.8v4.1h-30.8v29.3h37v4.2h-42.1V0.8H368.6z"/>
		<path class="st0" d="M432.5,0.8v1.7c0,0.7-0.2,1.4-0.7,2l-44.6,62.3h44.9v4.2h-51.7v-1.8c0-0.6,0.2-1.2,0.6-1.8L425.8,5h-44V0.8
			H432.5z"/>
		<path class="st0" d="M474,67.5c3.4,0,6.4-0.6,9.1-1.8c2.7-1.2,4.9-2.8,6.8-4.9c1.9-2.1,3.3-4.5,4.2-7.4c1-2.8,1.5-5.9,1.5-9.2V0.8
			h5.1v43.5c0,3.9-0.6,7.5-1.8,10.9c-1.2,3.4-3,6.3-5.3,8.8c-2.3,2.5-5.1,4.5-8.4,5.9c-3.3,1.4-7,2.1-11.1,2.1
			c-4.1,0-7.8-0.7-11.1-2.1c-3.3-1.4-6.1-3.4-8.4-5.9c-2.3-2.5-4.1-5.4-5.3-8.8c-1.2-3.4-1.8-7-1.8-10.9V0.8h5.1v43.4
			c0,3.3,0.5,6.3,1.5,9.2c1,2.8,2.4,5.3,4.2,7.4c1.8,2.1,4.1,3.7,6.8,4.9C467.6,66.9,470.7,67.5,474,67.5z"/>
		<path class="st0" d="M555,9.3c-0.3,0.6-0.7,0.8-1.3,0.8c-0.4,0-1-0.3-1.7-0.9c-0.7-0.6-1.6-1.3-2.8-2c-1.2-0.7-2.6-1.4-4.4-2.1
			c-1.7-0.6-3.9-0.9-6.5-0.9c-2.6,0-4.8,0.4-6.8,1.1c-1.9,0.7-3.6,1.7-4.9,3c-1.3,1.3-2.3,2.7-3,4.4c-0.7,1.7-1,3.4-1,5.2
			c0,2.4,0.5,4.4,1.5,5.9c1,1.6,2.3,2.9,4,4s3.5,2,5.6,2.8s4.3,1.5,6.5,2.2c2.2,0.7,4.4,1.5,6.5,2.4s4,2,5.6,3.3c1.7,1.3,3,3,4,4.9
			c1,1.9,1.5,4.3,1.5,7.2c0,2.9-0.5,5.7-1.5,8.3c-1,2.6-2.5,4.9-4.4,6.8c-1.9,1.9-4.3,3.4-7.1,4.5c-2.8,1.1-6,1.7-9.5,1.7
			c-4.6,0-8.6-0.8-12-2.5c-3.3-1.6-6.3-3.9-8.8-6.7l1.4-2.2c0.4-0.5,0.9-0.7,1.4-0.7c0.3,0,0.7,0.2,1.1,0.6s1,0.9,1.7,1.5
			c0.7,0.6,1.5,1.2,2.4,1.9c0.9,0.7,2,1.3,3.2,1.9c1.2,0.6,2.6,1.1,4.2,1.5s3.4,0.6,5.4,0.6c2.8,0,5.3-0.4,7.5-1.3
			c2.2-0.8,4-2,5.5-3.5c1.5-1.5,2.7-3.2,3.5-5.2c0.8-2,1.2-4.1,1.2-6.4c0-2.5-0.5-4.5-1.5-6.1c-1-1.6-2.3-2.9-4-4
			c-1.7-1.1-3.5-2-5.6-2.7c-2.1-0.7-4.3-1.4-6.5-2.1s-4.4-1.5-6.5-2.3c-2.1-0.9-4-2-5.6-3.3c-1.7-1.3-3-3-4-5c-1-2-1.5-4.5-1.5-7.5
			c0-2.4,0.4-4.6,1.3-6.8c0.9-2.2,2.2-4.1,3.9-5.8c1.7-1.7,3.9-3,6.4-4c2.5-1,5.4-1.5,8.7-1.5c3.6,0,6.9,0.6,9.8,1.7
			c2.9,1.2,5.5,2.9,7.9,5.3L555,9.3z"/>
		<path class="st0" d="M579.4,33.2h4.2c0.6,0,1.2,0,1.6-0.1c0.5,0,0.9-0.1,1.3-0.3s0.7-0.3,1.1-0.6c0.3-0.2,0.7-0.5,1-0.9L617,2.2
			c0.5-0.5,1-0.9,1.5-1.1c0.4-0.2,1-0.3,1.7-0.3h4.1l-30.7,31.5c-0.6,0.7-1.2,1.2-1.7,1.5c-0.5,0.4-1,0.7-1.6,0.9
			c0.7,0.2,1.3,0.5,1.9,0.9c0.5,0.4,1.1,1,1.7,1.6l32.4,33.8H622c-0.9,0-1.5-0.1-1.8-0.4s-0.7-0.6-1.1-1l-29.8-30.4
			c-0.4-0.4-0.7-0.7-1-0.9c-0.3-0.3-0.6-0.5-1-0.7c-0.4-0.2-0.8-0.3-1.4-0.4c-0.5-0.1-1.2-0.1-2-0.1h-4.5v33.9h-5.1V0.7h5.1V33.2z"
			/>
		<path class="st0" d="M691.3,71.1h-3.9c-0.5,0-0.8-0.1-1.1-0.4s-0.5-0.6-0.7-1l-8.3-20.4h-34.5l-8.2,20.4c-0.1,0.4-0.4,0.7-0.7,0.9
			c-0.3,0.3-0.7,0.4-1.2,0.4h-3.9l28.8-70.3h5.1L691.3,71.1z M644.3,45.5h31.5L661.4,10c-0.2-0.6-0.5-1.2-0.7-1.9
			c-0.2-0.7-0.5-1.5-0.7-2.3c-0.2,0.8-0.5,1.5-0.7,2.3c-0.2,0.7-0.5,1.4-0.7,2L644.3,45.5z"/>
	</g>
	<g>
		
			<rect x="345" y="-248.5" transform="matrix(3.289790e-03 -1 1 3.289790e-03 247.3145 443.3243)" class="st1" width="2" height="692.1"/>
	</g>
	<g>
		<path class="st1" d="M17.7,155.8c1.2,0,2.2-0.1,3.2-0.2s1.8-0.3,2.7-0.5c0.8-0.2,1.6-0.5,2.3-0.9c0.7-0.3,1.5-0.7,2.2-1.2v-9.1
			h-6.5c-0.2,0-0.3-0.1-0.4-0.2c-0.1-0.1-0.2-0.2-0.2-0.4V142h9.4v12c-0.8,0.6-1.7,1.1-2.6,1.6c-0.9,0.5-1.9,0.8-2.9,1.2
			c-1,0.3-2.2,0.6-3.3,0.7c-1.2,0.2-2.5,0.3-3.9,0.3c-2.4,0-4.7-0.4-6.7-1.2c-2-0.8-3.7-2-5.2-3.5s-2.6-3.3-3.4-5.5
			c-0.8-2.1-1.2-4.5-1.2-7.1c0-2.6,0.4-5,1.2-7.1c0.8-2.1,1.9-3.9,3.4-5.5s3.2-2.7,5.3-3.5s4.4-1.2,7-1.2c1.3,0,2.5,0.1,3.6,0.3
			c1.1,0.2,2.1,0.4,3,0.8c0.9,0.3,1.8,0.8,2.6,1.3c0.8,0.5,1.6,1.1,2.3,1.7l-0.6,1.1c-0.1,0.2-0.3,0.4-0.6,0.4c-0.1,0-0.3,0-0.4-0.1
			c-0.2-0.1-0.6-0.3-1-0.7c-0.5-0.4-1.1-0.7-1.8-1.1c-0.8-0.4-1.7-0.7-2.9-1c-1.2-0.3-2.6-0.5-4.2-0.5c-2.2,0-4.2,0.4-6,1.1
			s-3.3,1.7-4.5,3c-1.3,1.3-2.2,2.9-2.9,4.8c-0.7,1.9-1,4-1,6.3c0,2.4,0.3,4.5,1,6.4s1.6,3.5,2.9,4.8s2.7,2.3,4.4,3
			C13.7,155.5,15.6,155.8,17.7,155.8z"/>
		<path class="st1" d="M64.4,157.4h-1.9c-0.2,0-0.4-0.1-0.5-0.2s-0.3-0.3-0.3-0.5l-4-9.8H41.1l-4,9.8c-0.1,0.2-0.2,0.3-0.3,0.5
			c-0.2,0.1-0.4,0.2-0.6,0.2h-1.9l13.8-33.8h2.4L64.4,157.4z M41.8,145.1H57L50,128c-0.1-0.3-0.2-0.6-0.3-0.9s-0.2-0.7-0.3-1.1
			c-0.1,0.4-0.2,0.7-0.3,1.1s-0.2,0.7-0.3,0.9L41.8,145.1z"/>
		<path class="st1" d="M86.7,149c0.1-0.3,0.2-0.5,0.3-0.8c0.1-0.2,0.2-0.5,0.3-0.7l13.3-23.5c0.1-0.2,0.3-0.3,0.4-0.4
			c0.1,0,0.3-0.1,0.5-0.1h1.7v33.8h-2.2v-28.8c0-0.4,0-0.9,0.1-1.3l-13.3,23.7c-0.2,0.4-0.5,0.6-1,0.6h-0.4c-0.4,0-0.7-0.2-1-0.6
			l-13.7-23.7c0,0.5,0.1,0.9,0.1,1.3v28.8h-2.1v-33.8h1.7c0.2,0,0.4,0,0.5,0.1s0.3,0.2,0.4,0.4l13.7,23.5
			C86.3,148,86.5,148.5,86.7,149z"/>
		<path class="st1" d="M133.6,123.6v2h-17.8v13.7h14.8v2h-14.8v14.1h17.8v2h-20.3v-33.8H133.6z"/>
		<path class="st1" d="M176.2,157.4h-1.9c-0.2,0-0.4-0.1-0.5-0.2s-0.3-0.3-0.3-0.5l-4-9.8h-16.6l-4,9.8c-0.1,0.2-0.2,0.3-0.3,0.5
			c-0.2,0.1-0.4,0.2-0.6,0.2h-1.9l13.8-33.8h2.4L176.2,157.4z M153.6,145.1h15.2l-6.9-17.1c-0.1-0.3-0.2-0.6-0.3-0.9
			s-0.2-0.7-0.3-1.1c-0.1,0.4-0.2,0.7-0.3,1.1s-0.2,0.7-0.3,0.9L153.6,145.1z"/>
		<path class="st1" d="M184.8,142.1v15.3h-2.4v-33.8h8.6c3.9,0,6.8,0.8,8.8,2.3c1.9,1.5,2.9,3.7,2.9,6.6c0,1.3-0.2,2.5-0.7,3.5
			s-1.1,2-1.9,2.8s-1.8,1.5-3,2c-1.2,0.5-2.5,0.9-4,1c0.4,0.2,0.7,0.6,1,1l11.6,14.6h-2.1c-0.3,0-0.5,0-0.7-0.1
			c-0.2-0.1-0.4-0.3-0.5-0.5l-10.8-13.7c-0.3-0.4-0.6-0.6-0.9-0.7c-0.3-0.1-0.8-0.2-1.4-0.2H184.8z M184.8,140.3h5.9
			c1.5,0,2.8-0.2,4-0.5c1.2-0.4,2.2-0.9,3-1.5c0.8-0.7,1.4-1.5,1.9-2.4c0.4-0.9,0.6-2,0.6-3.2c0-2.4-0.8-4.2-2.4-5.4
			c-1.6-1.2-3.9-1.7-6.9-1.7h-6.2V140.3z"/>
		<path class="st1" d="M232.8,123.6v2.1h-11.9v31.8h-2.4v-31.8h-12v-2.1H232.8z"/>
		<path class="st1" d="M242,157.4h-2.5v-33.8h2.5V157.4z"/>
		<path class="st1" d="M269.4,127.7c-0.1,0.3-0.4,0.4-0.6,0.4c-0.2,0-0.5-0.1-0.8-0.4c-0.3-0.3-0.8-0.6-1.3-1s-1.3-0.7-2.1-1
			c-0.8-0.3-1.9-0.5-3.1-0.5s-2.3,0.2-3.3,0.5c-0.9,0.4-1.7,0.8-2.4,1.4c-0.6,0.6-1.1,1.3-1.4,2.1c-0.3,0.8-0.5,1.6-0.5,2.5
			c0,1.1,0.2,2.1,0.7,2.8c0.5,0.7,1.1,1.4,1.9,1.9c0.8,0.5,1.7,1,2.7,1.3c1,0.4,2.1,0.7,3.1,1.1c1.1,0.4,2.1,0.7,3.1,1.2
			c1,0.4,1.9,1,2.7,1.6s1.4,1.4,1.9,2.4c0.5,0.9,0.7,2.1,0.7,3.5c0,1.4-0.2,2.8-0.7,4c-0.5,1.3-1.2,2.3-2.1,3.3
			c-0.9,0.9-2.1,1.7-3.4,2.2c-1.3,0.5-2.9,0.8-4.6,0.8c-2.2,0-4.2-0.4-5.8-1.2c-1.6-0.8-3-1.9-4.2-3.2l0.7-1.1
			c0.2-0.2,0.4-0.4,0.7-0.4c0.1,0,0.3,0.1,0.6,0.3s0.5,0.4,0.8,0.7c0.3,0.3,0.7,0.6,1.1,0.9c0.4,0.3,1,0.6,1.6,0.9s1.3,0.5,2,0.7
			c0.8,0.2,1.6,0.3,2.6,0.3c1.3,0,2.5-0.2,3.6-0.6c1.1-0.4,1.9-1,2.7-1.7c0.7-0.7,1.3-1.5,1.7-2.5c0.4-1,0.6-2,0.6-3.1
			c0-1.2-0.2-2.2-0.7-3c-0.5-0.8-1.1-1.4-1.9-1.9c-0.8-0.5-1.7-1-2.7-1.3c-1-0.4-2.1-0.7-3.1-1c-1.1-0.3-2.1-0.7-3.1-1.1
			s-1.9-0.9-2.7-1.6c-0.8-0.6-1.4-1.5-1.9-2.4c-0.5-1-0.7-2.2-0.7-3.6c0-1.1,0.2-2.2,0.6-3.3c0.4-1.1,1.1-2,1.9-2.8s1.9-1.5,3.1-1.9
			c1.2-0.5,2.6-0.7,4.2-0.7c1.8,0,3.3,0.3,4.7,0.8c1.4,0.6,2.7,1.4,3.8,2.6L269.4,127.7z"/>
		<path class="st1" d="M300.1,123.6v2.1h-11.9v31.8h-2.4v-31.8h-12v-2.1H300.1z"/>
		<path class="st1" d="M340.6,157.4h-1.9c-0.2,0-0.4-0.1-0.5-0.2s-0.3-0.3-0.3-0.5l-4-9.8h-16.6l-4,9.8c-0.1,0.2-0.2,0.3-0.3,0.5
			c-0.2,0.1-0.4,0.2-0.6,0.2h-1.9l13.8-33.8h2.4L340.6,157.4z M318,145.1h15.2l-6.9-17.1c-0.1-0.3-0.2-0.6-0.3-0.9s-0.2-0.7-0.3-1.1
			c-0.1,0.4-0.2,0.7-0.3,1.1s-0.2,0.7-0.3,0.9L318,145.1z"/>
		<path class="st1" d="M347.7,123.6c0.1,0.1,0.3,0.2,0.4,0.4l21.9,29.3c0-0.5-0.1-0.9-0.1-1.4v-28.4h2.2v33.8h-1.2
			c-0.4,0-0.7-0.2-0.9-0.5l-22-29.4c0,0.5,0.1,0.9,0.1,1.4v28.5H346v-33.8h1.2C347.4,123.6,347.6,123.6,347.7,123.6z"/>
		<path class="st1" d="M410.6,140.5c0,2.6-0.4,5-1.2,7.1c-0.8,2.1-1.9,3.9-3.3,5.3s-3.1,2.6-5.1,3.4c-2,0.8-4.2,1.2-6.6,1.2h-12.3
			v-33.8h12.3c2.4,0,4.6,0.4,6.6,1.2c2,0.8,3.7,1.9,5.1,3.4c1.4,1.5,2.5,3.2,3.3,5.3C410.2,135.5,410.6,137.9,410.6,140.5z
			 M408.1,140.5c0-2.4-0.3-4.5-1-6.3c-0.7-1.8-1.6-3.4-2.8-4.7c-1.2-1.3-2.6-2.2-4.3-2.9c-1.7-0.7-3.5-1-5.6-1h-9.9v29.9h9.9
			c2,0,3.9-0.3,5.6-1c1.7-0.7,3.1-1.6,4.3-2.9c1.2-1.3,2.1-2.8,2.8-4.7C407.8,145,408.1,142.8,408.1,140.5z"/>
		<path class="st1" d="M456.2,140.5c0,2.6-0.4,5-1.2,7.1c-0.8,2.1-1.9,3.9-3.3,5.3s-3.1,2.6-5.1,3.4c-2,0.8-4.2,1.2-6.6,1.2h-12.3
			v-33.8h12.3c2.4,0,4.6,0.4,6.6,1.2c2,0.8,3.7,1.9,5.1,3.4c1.4,1.5,2.5,3.2,3.3,5.3C455.8,135.5,456.2,137.9,456.2,140.5z
			 M453.7,140.5c0-2.4-0.3-4.5-1-6.3c-0.7-1.8-1.6-3.4-2.8-4.7c-1.2-1.3-2.6-2.2-4.3-2.9c-1.7-0.7-3.5-1-5.6-1h-9.9v29.9h9.9
			c2,0,3.9-0.3,5.6-1c1.7-0.7,3.1-1.6,4.3-2.9c1.2-1.3,2.1-2.8,2.8-4.7C453.3,145,453.7,142.8,453.7,140.5z"/>
		<path class="st1" d="M484.4,123.6v2h-17.8v13.7h14.8v2h-14.8v14.1h17.8v2h-20.3v-33.8H484.4z"/>
		<path class="st1" d="M487.7,123.6h1.9c0.2,0,0.4,0.1,0.5,0.2c0.1,0.1,0.3,0.3,0.3,0.5l11.5,28.1c0.3,0.7,0.6,1.5,0.7,2.3
			c0.2-0.9,0.4-1.6,0.7-2.3l11.5-28.1c0.1-0.2,0.2-0.3,0.3-0.5c0.2-0.1,0.3-0.2,0.6-0.2h1.9l-14,33.8h-2.2L487.7,123.6z"/>
		<path class="st1" d="M543.5,123.6v2h-17.8v13.7h14.8v2h-14.8v14.1h17.8v2h-20.3v-33.8H543.5z"/>
		<path class="st1" d="M553.9,155.3h16v2.1h-18.5v-33.8h2.4V155.3z"/>
		<path class="st1" d="M604.2,140.5c0,2.6-0.4,5-1.2,7.1c-0.8,2.1-1.9,3.9-3.3,5.5c-1.4,1.5-3.1,2.7-5.1,3.5c-2,0.8-4.2,1.2-6.6,1.2
			c-2.4,0-4.6-0.4-6.5-1.2c-2-0.8-3.7-2-5.1-3.5s-2.5-3.3-3.3-5.5c-0.8-2.1-1.2-4.5-1.2-7.1c0-2.6,0.4-5,1.2-7.1
			c0.8-2.1,1.9-3.9,3.3-5.5s3.1-2.7,5.1-3.5c2-0.8,4.2-1.2,6.5-1.2c2.4,0,4.6,0.4,6.6,1.2c2,0.8,3.7,2,5.1,3.5
			c1.4,1.5,2.5,3.3,3.3,5.5C603.8,135.5,604.2,137.9,604.2,140.5z M601.6,140.5c0-2.4-0.3-4.5-1-6.4c-0.7-1.9-1.6-3.5-2.8-4.8
			c-1.2-1.3-2.6-2.3-4.3-3c-1.7-0.7-3.5-1-5.6-1c-2,0-3.8,0.3-5.5,1c-1.7,0.7-3.1,1.7-4.3,3c-1.2,1.3-2.1,2.9-2.8,4.8
			c-0.7,1.9-1,4-1,6.4c0,2.4,0.3,4.5,1,6.4c0.7,1.9,1.6,3.5,2.8,4.8c1.2,1.3,2.6,2.3,4.3,3c1.7,0.7,3.5,1,5.5,1c2,0,3.9-0.3,5.6-1
			c1.7-0.7,3.1-1.7,4.3-3c1.2-1.3,2.1-2.9,2.8-4.8C601.3,145,601.6,142.8,601.6,140.5z"/>
		<path class="st1" d="M615.3,143.8v13.6h-2.4v-33.8h8.7c4,0,7,0.9,9,2.6c2,1.7,3,4.2,3,7.4c0,1.5-0.3,2.8-0.8,4.1
			c-0.6,1.2-1.3,2.3-2.4,3.2c-1,0.9-2.3,1.6-3.8,2.1c-1.5,0.5-3.2,0.8-5,0.8H615.3z M615.3,141.8h6.3c1.5,0,2.8-0.2,4-0.6
			c1.2-0.4,2.2-1,3-1.7s1.5-1.6,1.9-2.6s0.7-2.1,0.7-3.3c0-2.6-0.8-4.6-2.4-6s-4-2.1-7.2-2.1h-6.3V141.8z"/>
		<path class="st1" d="M660.8,123.6v2H643v13.7h14.8v2H643v14.1h17.8v2h-20.3v-33.8H660.8z"/>
		<path class="st1" d="M671.9,142.1v15.3h-2.4v-33.8h8.6c3.9,0,6.8,0.8,8.8,2.3c1.9,1.5,2.9,3.7,2.9,6.6c0,1.3-0.2,2.5-0.7,3.5
			s-1.1,2-1.9,2.8s-1.8,1.5-3,2c-1.2,0.5-2.5,0.9-4,1c0.4,0.2,0.7,0.6,1,1l11.6,14.6h-2.1c-0.3,0-0.5,0-0.7-0.1
			c-0.2-0.1-0.4-0.3-0.5-0.5l-10.8-13.7c-0.3-0.4-0.6-0.6-0.9-0.7c-0.3-0.1-0.8-0.2-1.4-0.2H671.9z M671.9,140.3h5.9
			c1.5,0,2.8-0.2,4-0.5c1.2-0.4,2.2-0.9,3-1.5c0.8-0.7,1.4-1.5,1.9-2.4c0.4-0.9,0.6-2,0.6-3.2c0-2.4-0.8-4.2-2.4-5.4
			c-1.6-1.2-3.9-1.7-6.9-1.7h-6.2V140.3z"/>
	</g>
</g>
</svg>
