<?xml version="1.0" encoding="UTF-8"?>
<svg id="Layer_1" data-name="Layer 1" xmlns="http://www.w3.org/2000/svg" version="1.1" viewBox="0 0 548.9 176.2">
  <defs>
    <style>
      .cls-1 {
        fill: #fd4451;
      }

      .cls-1, .cls-2 {
        stroke-width: 0px;
      }

      .cls-3 {
        isolation: isolate;
      }

      .cls-2 {
        fill: #fff;
      }
    </style>
  </defs>
  <g>
    <path class="cls-1" d="M92.6,171.1c-45.8,0-83-37.2-83-83S46.8,5.1,92.6,5.1s83,37.2,83,83-37.2,83-83,83ZM92.6,14.7c-40.4,0-73.4,33-73.4,73.4s33,73.4,73.4,73.4,73.4-33,73.4-73.4S133,14.7,92.6,14.7Z"/>
    <g>
      <g>
        <circle class="cls-1" cx="138.6" cy="102" r="6.5"/>
        <circle class="cls-1" cx="124.6" cy="88.2" r="6.5"/>
        <circle class="cls-1" cx="138.4" cy="74.2" r="6.5"/>
        <circle class="cls-1" cx="152.4" cy="88" r="6.5"/>
      </g>
      <path class="cls-1" d="M37.8,92.5h-2.3v14.8h-9.2v-38.4h9.2v14.4h2.3l7.8-14.4h10.7l-10.4,19,10.8,19.3h-10.7l-8.2-14.8h0Z"/>
      <path class="cls-1" d="M78.5,94.3v13h-9.2v-13l-11.6-25.4h10.2l6,13.6,5.9-13.6h10.2l-11.6,25.4h0Z"/>
      <polygon class="cls-1" points="106.5 68.7 94.8 107.5 99 107.5 110.7 68.7 106.5 68.7"/>
    </g>
  </g>
  <g class="cls-3">
    <path class="cls-2" d="M198.6,28.8h8.2v21.9l15.4-21.9h9.6l-14.2,20.1,14.9,28.9h-9.6l-11.1-22-5,6.8v15.2h-8.2V28.8h0Z"/>
    <path class="cls-2" d="M239.1,77.8V28.8h27.1v7.8h-18.9v12.5h17.4v7.8h-17.4v12.9h18.9v7.8h-27.1v.2Z"/>
    <path class="cls-2" d="M284.8,46.1v31.7h-8.2v-43.1l-3.3-5.2v-.6h9.8l24.8,34.8V28.8h8.2v49h-8.2l-23-31.7h0Z"/>
    <path class="cls-2" d="M335.7,36.7h-12.5v-7.8h33.1v7.8h-12.5v41.1h-8.2v-41.1h.1Z"/>
    <path class="cls-2" d="M399.5,28.8v31c0,11.6-7.1,18.7-18.2,18.7s-18.2-7.1-18.2-18.7v-31h8.2v31.6c0,6,4,10.2,10.1,10.2s9.9-4.1,9.9-10.2v-31.6s8.2,0,8.2,0Z"/>
    <path class="cls-2" d="M444.7,75.6c-3.5,1.9-7.6,3-12,3-14.3,0-25.2-10.9-25.2-25.3s10.9-25.3,25.2-25.3,8.5,1.2,12,3v9.5c-3-2.6-7.2-4.3-12-4.3-9.6,0-16.8,7.6-16.8,17.1s7.2,17.1,16.8,17.1,9.1-1.7,12-4.2c0,0,0,9.4,0,9.4Z"/>
    <path class="cls-2" d="M453.9,28.8h8.2v21.9l15.4-21.9h9.6l-14.2,20.1,14.9,28.9h-9.6l-11.1-22-5,6.8v15.2h-8.2V28.8h0Z"/>
    <path class="cls-2" d="M504.8,56.4l-16.1-27.6h9.3l10.9,19.4,10.9-19.4h9.2l-16,27.7v21.3h-8.2v-21.4h0Z"/>
  </g>
  <g class="cls-3">
    <path class="cls-2" d="M214.5,94.4c-1.8-1-4.2-1.8-7-1.8-5.2,0-9,3.8-9,9s3.6,9,8.5,9,7.7-3.3,7.7-7.1,0-.7,0-.9h-7.9v-3.9h12.3c.2.9.3,2.3.3,3.6,0,6.8-4.5,12.6-12.5,12.6s-12.8-5.8-12.8-13.3,5.6-13.3,13.4-13.3,5.3.6,7,1.4v4.7h0Z"/>
    <path class="cls-2" d="M237,108.1h-9.8l-2.3,6.3h-4.8l9.6-25.7h4.8l9.6,25.7h-4.8s-2.3-6.3-2.3-6.3ZM228.6,103.9h7l-3.5-9.6-3.5,9.6Z"/>
    <path class="cls-2" d="M258.8,114.4l-7.1-17.8v17.8h-4.3v-25.7h5.2l8.1,20.2,8.2-20.2h5.2v25.7h-4.3v-17.8l-7.1,17.8h-3.9Z"/>
    <path class="cls-2" d="M280.2,114.4v-25.7h14.2v4.1h-9.9v6.6h9.1v4.1h-9.1v6.8h9.9v4.1s-14.2,0-14.2,0Z"/>
    <path class="cls-2" d="M308.3,88.7h9.3c7.7,0,12.7,5.3,12.7,12.9s-4.9,12.9-12.7,12.9h-9.3v-25.7h0ZM312.6,92.8v17.5h4.9c5.2,0,8.2-3.7,8.2-8.7s-3-8.7-8.2-8.7h-4.9Z"/>
    <path class="cls-2" d="M334.8,114.4v-25.7h14.2v4.1h-9.9v6.6h9.1v4.1h-9.1v6.8h9.9v4.1s-14.2,0-14.2,0Z"/>
    <path class="cls-2" d="M351.3,88.7h4.8l7.2,20.7,7.2-20.7h4.8l-9.6,25.7h-4.8l-9.6-25.7Z"/>
    <path class="cls-2" d="M378.6,114.4v-25.7h14.2v4.1h-9.9v6.6h9.1v4.1h-9.1v6.8h9.9v4.1s-14.2,0-14.2,0Z"/>
    <path class="cls-2" d="M398.1,114.4v-25.7h4.3v21.6h9.9v4.1h-14.2,0Z"/>
    <path class="cls-2" d="M427.1,88.3c7.5,0,13.2,5.7,13.2,13.3s-5.7,13.3-13.2,13.3-13.2-5.7-13.2-13.3,5.7-13.3,13.2-13.3ZM427.1,110.5c5,0,8.8-4,8.8-9s-3.8-9-8.8-9-8.8,4-8.8,9,3.8,9,8.8,9Z"/>
    <path class="cls-2" d="M444.8,88.7h8.2c4.9,0,8.3,2.9,8.3,7.9s-3.4,7.9-8.3,7.9h-3.9v9.9h-4.3v-25.7h0ZM452.9,92.8h-3.8v7.6h3.8c2.2,0,3.9-1.2,3.9-3.8s-1.7-3.8-3.9-3.8Z"/>
    <path class="cls-2" d="M465.5,114.4v-25.7h14.2v4.1h-9.9v6.6h9.1v4.1h-9.1v6.8h9.9v4.1s-14.2,0-14.2,0Z"/>
    <path class="cls-2" d="M485.1,88.7h8.2c4.9,0,8.3,2.7,8.3,7.3s-2.2,5.8-5,6.6c3.2,1.5,5.4,6,6.2,11.8h-4.5c-1-6-3.7-10.2-7-10.2h-2v10.2h-4.3v-25.7h0ZM493.3,92.8h-3.9v7.3h3.9c2.2,0,3.9-1.3,3.9-3.6s-1.6-3.7-3.9-3.7Z"/>
    <path class="cls-2" d="M519.8,94.3c-1.4-1.1-3.5-1.9-5.6-1.9s-3.8,1.2-3.8,2.9.7,2,2.1,2.9l3.9,2.5c3.3,2,4.5,4,4.5,6.8s-2.7,7.4-8.4,7.4-4.9-.7-6.4-1.5v-4.8c1.4,1.1,3.7,2.2,6.2,2.2s4-1.4,4-3.1-.7-2.1-2.4-3.1l-4-2.5c-3.2-1.9-4.2-3.9-4.2-6.7s2.3-7.1,8.5-7.1,4,.6,5.5,1.3v4.7h0Z"/>
  </g>
  <g class="cls-3">
    <path class="cls-2" d="M196.3,124.9h10.6c8.9,0,14.5,6.1,14.5,14.8s-5.6,14.8-14.5,14.8h-10.6v-29.5h0ZM201.2,129.6v20h5.6c6,0,9.5-4.3,9.5-10s-3.5-10-9.5-10h-5.6Z"/>
    <path class="cls-2" d="M226.7,124.9h4.9v29.5h-4.9s0-29.5,0-29.5Z"/>
    <path class="cls-2" d="M253.2,131.3c-1.6-1.2-4-2.2-6.4-2.2s-4.4,1.4-4.4,3.3.8,2.3,2.4,3.3l4.5,2.8c3.8,2.3,5.2,4.6,5.2,7.9s-3.1,8.5-9.6,8.5-5.6-.8-7.4-1.7v-5.6c1.6,1.3,4.3,2.6,7.2,2.6s4.6-1.6,4.6-3.5-.8-2.4-2.7-3.6l-4.6-2.8c-3.6-2.1-4.8-4.5-4.8-7.6s2.6-8.2,9.8-8.2,4.6.7,6.3,1.5v5.4h-.1Z"/>
    <path class="cls-2" d="M280.3,153.1c-2.1,1.1-4.6,1.8-7.2,1.8-8.6,0-15.2-6.6-15.2-15.2s6.6-15.2,15.2-15.2,5.1.7,7.2,1.8v5.7c-1.8-1.6-4.3-2.6-7.2-2.6-5.8,0-10.1,4.6-10.1,10.3s4.3,10.3,10.1,10.3,5.5-1,7.2-2.6v5.7Z"/>
    <path class="cls-2" d="M298.6,124.4c8.6,0,15.2,6.6,15.2,15.2s-6.6,15.2-15.2,15.2-15.2-6.6-15.2-15.2,6.6-15.2,15.2-15.2ZM298.6,149.9c5.7,0,10.1-4.6,10.1-10.3s-4.4-10.3-10.1-10.3-10.1,4.6-10.1,10.3,4.3,10.3,10.1,10.3Z"/>
    <path class="cls-2" d="M318.9,124.9h9.5c5.6,0,9.5,3.1,9.5,8.4s-2.6,6.7-5.7,7.6c3.6,1.8,6.2,6.9,7.1,13.5h-5.1c-1.2-6.9-4.3-11.7-8-11.7h-2.3v11.7h-4.9v-29.5h-.1ZM328.3,129.6h-4.5v8.4h4.5c2.6,0,4.4-1.5,4.4-4.2s-1.9-4.2-4.4-4.2Z"/>
    <path class="cls-2" d="M344.2,124.9h10.6c8.9,0,14.5,6.1,14.5,14.8s-5.6,14.8-14.5,14.8h-10.6v-29.5h0ZM349.2,129.6v20h5.6c6,0,9.5-4.3,9.5-10s-3.5-10-9.5-10h-5.6Z"/>
    <path class="cls-2" d="M398.9,131.3c-1.6-1.2-4-2.2-6.4-2.2s-4.4,1.4-4.4,3.3.8,2.3,2.4,3.3l4.5,2.8c3.8,2.3,5.2,4.6,5.2,7.9s-3.1,8.5-9.6,8.5-5.6-.8-7.4-1.7v-5.6c1.6,1.3,4.3,2.6,7.2,2.6s4.6-1.6,4.6-3.5-.8-2.4-2.7-3.6l-4.6-2.8c-3.6-2.1-4.8-4.5-4.8-7.6s2.6-8.2,9.8-8.2,4.6.7,6.3,1.5v5.4h-.1Z"/>
    <path class="cls-2" d="M405.4,154.4v-29.5h16.3v4.7h-11.4v7.6h10.5v4.7h-10.5v7.8h11.4v4.7h-16.3Z"/>
    <path class="cls-2" d="M427.9,124.9h9.5c5.6,0,9.5,3.1,9.5,8.4s-2.6,6.7-5.7,7.6c3.6,1.8,6.2,6.9,7.1,13.5h-5.1c-1.2-6.9-4.3-11.7-8-11.7h-2.3v11.7h-4.9v-29.5h-.1ZM437.3,129.6h-4.5v8.4h4.5c2.6,0,4.4-1.5,4.4-4.2s-1.9-4.2-4.4-4.2Z"/>
    <path class="cls-2" d="M449.1,124.9h5.5l8.3,23.7,8.2-23.7h5.5l-11,29.5h-5.5s-11-29.5-11-29.5Z"/>
    <path class="cls-2" d="M480.4,154.4v-29.5h16.3v4.7h-11.4v7.6h10.5v4.7h-10.5v7.8h11.4v4.7h-16.3Z"/>
    <path class="cls-2" d="M502.9,124.9h9.5c5.6,0,9.5,3.1,9.5,8.4s-2.6,6.7-5.7,7.6c3.6,1.8,6.2,6.9,7.1,13.5h-5.1c-1.2-6.9-4.3-11.7-8-11.7h-2.3v11.7h-4.9v-29.5h-.1ZM512.3,129.6h-4.5v8.4h4.5c2.6,0,4.4-1.5,4.4-4.2s-1.9-4.2-4.4-4.2Z"/>
  </g>
</svg>